<svg width="524" height="524" xmlns="http://www.w3.org/2000/svg" xmlns:xlink="http://www.w3.org/1999/xlink" xml:space="preserve" overflow="hidden"><defs><clipPath id="clip0"><rect x="376" y="74" width="524" height="524"/></clipPath><clipPath id="clip1"><rect x="377" y="75" width="523" height="523"/></clipPath><clipPath id="clip2"><rect x="377" y="75" width="523" height="523"/></clipPath></defs><g clip-path="url(#clip0)" transform="translate(-376 -74)"><g clip-path="url(#clip1)"><g clip-path="url(#clip2)"><path d="M798.921 200.867C886.826 288.772 886.826 431.293 798.921 519.198 711.017 607.102 568.495 607.102 480.591 519.198 392.686 431.293 392.686 288.772 480.591 200.867 568.495 112.963 711.017 112.963 798.921 200.867Z" fill="#E8E8E8" fill-rule="nonzero" fill-opacity="1"/><path d="M730.338 446.852 554.246 448.215C542.609 448.305 533.103 438.945 533.013 427.308 532.923 415.672 542.283 406.165 553.92 406.075L730.011 404.712C741.648 404.622 751.154 413.982 751.244 425.619 751.335 437.255 741.974 446.762 730.338 446.852Z" fill="#505050" fill-rule="nonzero" fill-opacity="1"/><path d="M760.322 432.212C760.323 432.207 760.319 432.203 760.314 432.203 755.448 432.25 755.499 439.281 750.626 439.319 745.751 439.356 745.696 432.316 740.82 432.353 735.948 432.391 736.002 439.432 731.13 439.469 726.262 439.507 726.207 432.467 721.339 432.504 716.468 432.542 716.523 439.583 711.652 439.62 706.783 439.658 706.728 432.618 701.859 432.655 696.99 432.693 697.044 439.733 692.175 439.771 687.305 439.809 687.251 432.768 682.382 432.806 677.514 432.843 677.569 439.884 672.702 439.922 667.837 439.959 667.783 432.919 662.918 432.957 658.05 432.994 658.104 440.034 653.236 440.073 648.367 440.11 648.313 433.07 643.445 433.108 638.577 433.145 638.631 440.185 633.763 440.223 628.894 440.261 628.839 433.221 623.969 433.258 619.101 433.296 619.155 440.336 614.287 440.374 609.42 440.412 609.366 433.372 604.499 433.409 599.63 433.447 599.685 440.487 594.816 440.525 589.95 440.563 589.895 433.522 585.029 433.56 580.161 433.597 580.216 440.638 575.349 440.676 570.482 440.713 570.428 433.673 565.561 433.711 560.694 433.748 560.748 440.789 555.881 440.827 551.016 440.864 550.961 433.824 546.096 433.862 541.229 433.899 541.283 440.939 536.416 440.978 531.554 441.015 531.496 433.985 526.64 434.012 526.635 434.012 526.631 434.017 526.632 434.022L549.036 542.264C550.578 549.714 557.168 555.037 564.775 554.978L724.799 553.739C732.447 553.68 738.975 548.2 740.36 540.679L760.322 432.212Z" fill="#C6C6C6" fill-rule="nonzero" fill-opacity="1"/><path d="M563.6 461.915C563.6 467.795 558.834 472.561 552.955 472.561 547.075 472.561 542.309 467.795 542.309 461.915 542.309 456.036 547.075 451.27 552.955 451.27 558.834 451.27 563.6 456.036 563.6 461.915Z" fill="#FFFFFF" fill-rule="nonzero" fill-opacity="1"/><path d="M615.654 477.481C615.654 483.361 610.887 488.127 605.008 488.127 599.129 488.127 594.362 483.361 594.362 477.481 594.362 471.602 599.129 466.836 605.008 466.836 610.887 466.836 615.654 471.602 615.654 477.481Z" fill="#FFFFFF" fill-rule="nonzero" fill-opacity="1"/><path d="M594.713 522.89C594.713 528.769 589.947 533.535 584.067 533.535 578.188 533.535 573.422 528.769 573.422 522.89 573.422 517.011 578.188 512.244 584.067 512.244 589.947 512.244 594.713 517.011 594.713 522.89Z" fill="#FFFFFF" fill-rule="nonzero" fill-opacity="1"/><path d="M578.426 481.731C578.426 485.406 575.447 488.385 571.772 488.385 568.097 488.385 565.118 485.406 565.118 481.731 565.118 478.056 568.097 475.077 571.772 475.077 575.447 475.077 578.426 478.056 578.426 481.731Z" fill="#FFFFFF" fill-rule="nonzero" fill-opacity="1"/><path d="M614.324 537.157C614.324 540.097 611.941 542.48 609.001 542.48 606.062 542.48 603.678 540.097 603.678 537.157 603.678 534.218 606.062 531.834 609.001 531.834 611.941 531.834 614.324 534.218 614.324 537.157Z" fill="#FFFFFF" fill-rule="nonzero" fill-opacity="1"/><path d="M644.969 482.536C644.969 485.476 642.586 487.859 639.646 487.859 636.707 487.859 634.324 485.476 634.324 482.536 634.324 479.597 636.707 477.213 639.646 477.213 642.586 477.213 644.969 479.597 644.969 482.536Z" fill="#FFFFFF" fill-rule="nonzero" fill-opacity="1"/><path d="M673.657 270.011C673.657 270.007 673.66 270.003 673.664 270.003 676.768 270.185 679.928 269.124 682.28 266.736 686.404 262.548 686.502 255.959 682.709 251.599L682.772 251.54 634.467 203.978C630.126 199.704 623.136 199.607 618.767 203.853 616.291 206.26 615.222 209.517 615.458 212.692 615.458 212.697 615.455 212.701 615.451 212.701 612.348 212.518 609.187 213.58 606.835 215.968 602.506 220.365 602.56 227.439 606.957 231.768 607.354 232.158 607.793 232.472 608.229 232.79 608.234 232.794 608.233 232.802 608.227 232.804 606.324 233.291 604.517 234.247 603.038 235.749 598.709 240.146 598.764 247.22 603.161 251.548 603.557 251.938 603.997 252.253 604.432 252.571 604.438 252.575 604.436 252.583 604.43 252.584 602.527 253.071 600.72 254.028 599.242 255.529 594.912 259.926 594.967 267 599.364 271.329 599.544 271.506 599.753 271.631 599.942 271.793 599.945 271.796 599.946 271.8 599.943 271.803 595.95 276.218 596.081 283.018 600.362 287.234 604.641 291.448 611.439 291.474 615.79 287.42 615.793 287.418 615.797 287.417 615.8 287.42 620.218 291.282 626.914 291.12 631.085 286.883 632.563 285.382 633.492 283.56 633.949 281.65 633.951 281.644 633.959 281.642 633.963 281.647 634.288 282.078 634.609 282.512 635.005 282.903 639.402 287.232 646.476 287.177 650.805 282.78 652.283 281.28 653.211 279.457 653.668 277.547 653.67 277.541 653.677 277.539 653.682 277.544 654.007 277.975 654.328 278.41 654.724 278.8 659.121 283.129 666.195 283.074 670.524 278.678 672.875 276.288 673.887 273.111 673.657 270.011Z" fill="#737373" fill-rule="nonzero" fill-opacity="1"/><path d="M647.256 232.223C649.831 234.897 649.751 239.151 647.078 241.727 644.404 244.302 640.149 244.222 637.574 241.548 634.999 238.875 635.079 234.62 637.752 232.045 640.426 229.47 644.681 229.55 647.256 232.223Z" fill="#505050" fill-rule="nonzero" fill-opacity="1"/><path d="M626.673 233.966C629.248 236.639 629.169 240.894 626.495 243.469 623.822 246.044 619.567 245.964 616.992 243.291 614.417 240.617 614.497 236.363 617.17 233.788 619.843 231.212 624.098 231.292 626.673 233.966Z" fill="#505050" fill-rule="nonzero" fill-opacity="1"/><path d="M633.272 216.199C635.847 218.872 635.768 223.127 633.094 225.702 630.421 228.277 626.166 228.197 623.591 225.524 621.016 222.85 621.095 218.595 623.769 216.02 626.442 213.445 630.697 213.525 633.272 216.199Z" fill="#505050" fill-rule="nonzero" fill-opacity="1"/><path d="M632.725 260.046C635.3 262.719 635.22 266.974 632.547 269.549 629.873 272.124 625.618 272.044 623.043 269.371 620.468 266.697 620.548 262.443 623.221 259.867 625.895 257.292 630.15 257.372 632.725 260.046Z" fill="#D0D0D0" fill-rule="nonzero" fill-opacity="1"/><path d="M612.692 258.742C615.267 261.416 615.187 265.671 612.514 268.246 609.84 270.821 605.585 270.741 603.01 268.068 600.435 265.394 600.515 261.139 603.188 258.564 605.862 255.989 610.117 256.069 612.692 258.742Z" fill="#505050" fill-rule="nonzero" fill-opacity="1"/><path d="M694.243 222.474C691.205 220.222 684.922 216.602 676.306 217.005 670.666 217.272 666.15 219.222 662.972 221.178 662.966 221.181 662.96 221.176 662.962 221.169 663.991 218.275 664.862 214.617 665.401 210.594 666.697 200.918 662.919 192.403 662.814 192.168 662.812 192.163 662.812 192.163 662.808 192.167 662.645 192.366 656.761 199.588 655.465 209.263 655.057 212.311 654.887 215.209 654.93 217.766 654.93 217.773 654.922 217.776 654.917 217.77 653.41 215.785 651.562 213.678 649.446 211.594 642.491 204.745 633.414 202.648 633.163 202.591 633.158 202.59 633.158 202.59 633.159 202.595 633.22 202.845 635.457 211.889 642.413 218.737 648.298 224.531 654.337 228.282 657.308 228.226 657.312 228.226 657.315 228.228 657.315 228.233 657.305 231.205 661.149 237.186 667.034 242.98 673.989 249.829 683.067 251.925 683.317 251.982 683.323 251.983 683.323 251.983 683.321 251.978 683.26 251.728 681.023 242.685 674.067 235.837 669.814 231.648 665.481 228.532 662.279 227.141 662.274 227.139 662.273 227.133 662.277 227.129 664.57 225.167 669.516 221.758 676.516 221.426 684.102 221.069 689.654 224.567 691.686 226.088 692.691 226.84 694.126 226.61 694.843 225.562 695.523 224.566 695.211 223.193 694.243 222.474Z" fill="#505050" fill-rule="nonzero" fill-opacity="1"/><path d="M736.371 330.486 735.573 330.492C740.907 323.892 743.736 315.267 742.795 306.159 740.907 287.882 724.559 274.596 706.281 276.483L571.895 290.374C553.617 292.264 540.331 308.612 542.22 326.889 542.401 328.649 542.757 330.347 543.196 332.005 523.015 332.433 506.858 348.985 507.015 369.23 507.173 389.644 523.852 406.068 544.268 405.91L562.768 405.767C577.184 414.593 588.851 416.231 597.155 415.931 614.111 415.319 619.251 406.575 638.39 406.632 655.102 406.682 659.342 413.376 674.376 415.333 685.058 416.724 700.145 415.588 719.697 404.551L736.943 404.418C757.36 404.259 773.783 387.578 773.624 367.165 773.467 346.752 756.788 330.327 736.371 330.486Z" fill="#00B0F0" fill-rule="nonzero" fill-opacity="1"/><path d="M709.584 265.809C719.76 275.834 719.867 292.225 709.824 302.421 699.78 312.616 683.389 312.755 673.213 302.73 663.037 292.706 662.93 276.314 672.973 266.119 683.017 255.923 699.408 255.785 709.584 265.809Z" fill="#505050" fill-rule="nonzero" fill-opacity="1"/><path d="M712.648 273.97 705.532 276.279 707.204 283.576C707.206 283.583 707.198 283.588 707.192 283.583L701.629 278.573 696.143 283.669C696.138 283.674 696.129 283.669 696.13 283.662L697.69 276.34 690.538 274.142C690.532 274.14 690.532 274.13 690.538 274.128L697.654 271.819 695.982 264.522C695.98 264.515 695.989 264.51 695.994 264.515L701.558 269.524 707.043 264.429C707.048 264.424 707.057 264.429 707.056 264.436L705.497 271.758 712.648 273.956C712.655 273.958 712.655 273.968 712.648 273.97Z" fill="#2F2F2F" fill-rule="nonzero" fill-opacity="1"/><path d="M688 286.855C690.873 303.573 679.65 319.454 662.932 322.328 646.215 325.201 630.333 313.978 627.46 297.261 624.587 280.543 635.81 264.661 652.527 261.788 669.245 258.915 685.126 270.138 688 286.855Z" fill="#505050" fill-rule="nonzero" fill-opacity="1"/><path d="M667.139 280.108 660.023 282.416 661.695 289.713C661.697 289.721 661.689 289.725 661.683 289.721L656.12 284.711 650.634 289.806C650.629 289.812 650.62 289.806 650.621 289.8L652.181 282.477 645.029 280.28C645.023 280.277 645.023 280.267 645.029 280.265L652.145 277.957 650.473 270.66C650.471 270.652 650.48 270.648 650.485 270.652L656.048 275.662 661.534 270.567C661.539 270.561 661.548 270.567 661.547 270.573L659.988 277.896 667.139 280.093C667.146 280.096 667.146 280.105 667.139 280.108Z" fill="#2F2F2F" fill-rule="nonzero" fill-opacity="1"/><path d="M559.708 353.478C558.473 353.478 557.467 352.481 557.457 351.244 557.448 350.001 558.448 348.985 559.691 348.976L579.199 348.825C579.205 348.825 579.211 348.825 579.217 348.825 580.452 348.825 581.458 349.821 581.467 351.059 581.477 352.302 580.477 353.318 579.234 353.327L559.726 353.478C559.72 353.478 559.714 353.478 559.708 353.478Z" fill="#737373" fill-rule="nonzero" fill-opacity="1"/><path d="M571.11 391.051C570.54 391.051 569.969 390.836 569.531 390.405 568.645 389.533 568.634 388.107 569.506 387.222L583.193 373.321C584.066 372.434 585.491 372.425 586.377 373.297 587.263 374.168 587.273 375.594 586.402 376.479L572.714 390.38C572.274 390.827 571.692 391.051 571.11 391.051Z" fill="#FFFFFF" fill-rule="nonzero" fill-opacity="1"/><path d="M686.436 343.031C685.865 343.031 685.294 342.816 684.857 342.384 683.971 341.512 683.96 340.087 684.832 339.201L698.519 325.3C699.391 324.414 700.817 324.404 701.702 325.275 702.588 326.148 702.598 327.573 701.726 328.459L688.04 342.359C687.599 342.807 687.017 343.031 686.436 343.031Z" fill="#FFFFFF" fill-rule="nonzero" fill-opacity="1"/><path d="M647.21 375.888C646.64 375.888 646.069 375.673 645.632 375.241L631.731 361.554C630.844 360.682 630.834 359.257 631.706 358.371 632.578 357.485 634.003 357.475 634.889 358.346L648.79 372.034C649.676 372.906 649.687 374.331 648.815 375.217 648.373 375.664 647.792 375.888 647.21 375.888Z" fill="#FFFFFF" fill-rule="nonzero" fill-opacity="1"/><path d="M607.602 336.888C607.032 336.888 606.461 336.673 606.022 336.241L592.122 322.554C591.236 321.681 591.225 320.257 592.097 319.37 592.969 318.484 594.395 318.474 595.281 319.346L609.181 333.033C610.067 333.906 610.078 335.33 609.206 336.217 608.766 336.664 608.184 336.888 607.602 336.888Z" fill="#FFFFFF" fill-rule="nonzero" fill-opacity="1"/><path d="M695.169 367.725C693.934 367.725 692.928 366.728 692.918 365.491 692.909 364.248 693.909 363.232 695.152 363.223L714.66 363.072C714.666 363.072 714.672 363.072 714.677 363.072 715.912 363.072 716.918 364.068 716.928 365.306 716.938 366.549 715.937 367.565 714.694 367.574L695.187 367.725C695.181 367.725 695.175 367.725 695.169 367.725Z" fill="#FFFFFF" fill-rule="nonzero" fill-opacity="1"/><path d="M609.998 161.752C608.763 161.752 607.756 160.755 607.747 159.518 607.737 158.275 608.737 157.259 609.98 157.25L629.489 157.099C629.495 157.099 629.501 157.099 629.507 157.099 630.742 157.099 631.748 158.095 631.758 159.333 631.767 160.576 630.767 161.592 629.524 161.601L610.016 161.752C610.009 161.752 610.003 161.752 609.998 161.752Z" fill="#737373" fill-rule="nonzero" fill-opacity="1"/><path d="M568.067 270.125C566.832 270.125 565.826 269.129 565.816 267.892L565.665 248.384C565.655 247.141 566.655 246.125 567.899 246.116 567.905 246.116 567.911 246.116 567.917 246.116 569.152 246.116 570.158 247.112 570.168 248.35L570.319 267.857C570.328 269.1 569.328 270.116 568.085 270.125 568.079 270.125 568.073 270.125 568.067 270.125Z" fill="#00B0F0" fill-rule="nonzero" fill-opacity="1"/><path d="M555.807 218.591C555.237 218.591 554.666 218.376 554.228 217.944L540.328 204.257C539.441 203.385 539.431 201.96 540.303 201.074 541.175 200.187 542.6 200.178 543.486 201.049L557.387 214.736C558.273 215.609 558.283 217.034 557.411 217.92 556.971 218.367 556.389 218.591 555.807 218.591Z" fill="#737373" fill-rule="nonzero" fill-opacity="1"/><path d="M630.218 97.0651C629.648 97.0651 629.077 96.8497 628.639 96.4183 627.752 95.5457 627.742 94.1208 628.614 93.2347L642.301 79.3343C643.173 78.4489 644.599 78.4377 645.484 79.3095 646.37 80.1822 646.381 81.607 645.509 82.4931L631.821 96.3935C631.382 96.8415 630.799 97.0651 630.218 97.0651Z" fill="#00B0F0" fill-rule="nonzero" fill-opacity="1"/><path d="M577.777 186.156C577.207 186.156 576.636 185.941 576.198 185.51 575.312 184.637 575.301 183.212 576.173 182.326L589.861 168.426C590.732 167.54 592.159 167.53 593.044 168.401 593.93 169.274 593.941 170.698 593.069 171.585L579.382 185.485C578.941 185.932 578.36 186.156 577.777 186.156Z" fill="#00B0F0" fill-rule="nonzero" fill-opacity="1"/><path d="M590.993 129.922C590.423 129.922 589.852 129.707 589.413 129.276L575.513 115.588C574.627 114.716 574.616 113.291 575.488 112.405 576.36 111.518 577.786 111.508 578.672 112.38L592.572 126.067C593.458 126.94 593.469 128.365 592.597 129.251 592.157 129.699 591.574 129.922 590.993 129.922Z" fill="#737373" fill-rule="nonzero" fill-opacity="1"/><path d="M638.951 121.76C637.716 121.76 636.71 120.763 636.7 119.526 636.69 118.283 637.69 117.267 638.934 117.258L658.442 117.107C659.654 117.091 660.701 118.097 660.71 119.341 660.72 120.584 659.72 121.6 658.477 121.609L638.968 121.76C638.963 121.76 638.957 121.76 638.951 121.76Z" fill="#00B0F0" fill-rule="nonzero" fill-opacity="1"/></g></g></g></svg>