<?xml version="1.0" encoding="UTF-8"?>
<svg id="Layer_2" data-name="Layer 2" xmlns="http://www.w3.org/2000/svg" xmlns:xlink="http://www.w3.org/1999/xlink" viewBox="0 0 295.55 157.81">
  <defs>
    <style>
      .cls-1 {
        filter: url(#drop-shadow-4);
      }

      .cls-2 {
        filter: url(#drop-shadow-2);
      }

      .cls-3 {
        filter: url(#drop-shadow-3);
      }

      .cls-4 {
        fill: url(#linear-gradient-3);
      }

      .cls-5 {
        fill: url(#linear-gradient-4);
      }

      .cls-6 {
        fill: url(#linear-gradient-2);
      }

      .cls-7 {
        fill: url(#linear-gradient-5);
      }

      .cls-8 {
        fill: url(#linear-gradient);
        filter: url(#drop-shadow-1);
      }
    </style>
    <linearGradient id="linear-gradient" x1="79.08" y1="-6.44" x2="202.25" y2="116.74" gradientUnits="userSpaceOnUse">
      <stop offset="0" stop-color="#72bcfc"/>
      <stop offset="1" stop-color="#3282f0"/>
    </linearGradient>
    <filter id="drop-shadow-1" filterUnits="userSpaceOnUse">
      <feOffset dx="0" dy="0"/>
      <feGaussianBlur result="blur" stdDeviation="5"/>
      <feFlood flood-color="#000" flood-opacity=".2"/>
      <feComposite in2="blur" operator="in"/>
      <feComposite in="SourceGraphic"/>
    </filter>
    <filter id="drop-shadow-2" filterUnits="userSpaceOnUse">
      <feOffset dx="0" dy="0"/>
      <feGaussianBlur result="blur-2" stdDeviation="5"/>
      <feFlood flood-color="#000" flood-opacity=".2"/>
      <feComposite in2="blur-2" operator="in"/>
      <feComposite in="SourceGraphic"/>
    </filter>
    <linearGradient id="linear-gradient-2" x1="0" y1="101.01" x2="96.31" y2="101.01" gradientUnits="userSpaceOnUse">
      <stop offset="0" stop-color="#eba122"/>
      <stop offset=".82" stop-color="#dc7d08"/>
    </linearGradient>
    <linearGradient id="linear-gradient-3" x1="7.32" y1="101.04" x2="89.22" y2="101.04" gradientUnits="userSpaceOnUse">
      <stop offset="0" stop-color="#f6bf2a"/>
      <stop offset=".82" stop-color="#ef9213"/>
    </linearGradient>
    <filter id="drop-shadow-3" filterUnits="userSpaceOnUse">
      <feOffset dx="0" dy="0"/>
      <feGaussianBlur result="blur-3" stdDeviation="5"/>
      <feFlood flood-color="#000" flood-opacity=".2"/>
      <feComposite in2="blur-3" operator="in"/>
      <feComposite in="SourceGraphic"/>
    </filter>
    <linearGradient id="linear-gradient-4" x1="1.48" y1="-577.4" x2="53.29" y2="-577.4" gradientTransform="translate(8.44 624.36) rotate(18.8)" xlink:href="#linear-gradient-3"/>
    <filter id="drop-shadow-4" filterUnits="userSpaceOnUse">
      <feOffset dx="0" dy="0"/>
      <feGaussianBlur result="blur-4" stdDeviation="5"/>
      <feFlood flood-color="#000" flood-opacity=".2"/>
      <feComposite in2="blur-4" operator="in"/>
      <feComposite in="SourceGraphic"/>
    </filter>
    <linearGradient id="linear-gradient-5" x1="151.59" y1="551.47" x2="203.54" y2="630.01" gradientTransform="translate(-177.47 -397.71) rotate(-17.71)" gradientUnits="userSpaceOnUse">
      <stop offset="0" stop-color="#f1cd43"/>
      <stop offset=".18" stop-color="#efc93d"/>
      <stop offset=".39" stop-color="#ebbe2e"/>
      <stop offset=".58" stop-color="#e7b11a"/>
    </linearGradient>
  </defs>
  <g id="Layer_1-2" data-name="Layer 1">
    <g>
      <path class="cls-8" d="m64.31,15.19h199.21c14.74,0,22.13,17.8,11.73,28.24l-93.05,93.36c-3.11,3.12-7.33,4.87-11.73,4.87h-106.17c-9.14,0-16.56-7.41-16.56-16.56V31.74c0-9.14,7.41-16.56,16.56-16.56Z"/>
      <g class="cls-2">
        <path class="cls-6" d="m96.29,67.67s.02-.02.02-.04c-.02-6.81-5.46-12.96-15.32-17.32-8.89-3.93-20.55-6.1-32.84-6.1s-23.95,2.16-32.83,6.09C5.44,54.68,0,60.84,0,67.66c0,.05,0,.11,0,.16,0,.03,0,.07,0,.1v67.67c0,6.54,5.43,12.41,15.3,16.52,8.84,3.68,20.51,5.71,32.86,5.71s24.02-2.03,32.86-5.71c9.87-4.11,15.27-9.98,15.27-16.52M18.32,57.08c7.96-3.52,18.56-5.46,29.84-5.46s21.87,1.94,29.84,5.47c6.83,3.02,10.91,6.98,10.91,10.58s-4.08,7.56-10.91,10.58c-7.97,3.53-18.56,5.47-29.84,5.47-23.32,0-40.75-8.48-40.75-16.06,0-3.6,4.08-7.56,10.91-10.58Zm70.59,78.5c0,3.26-4.01,6.88-10.74,9.68-7.95,3.31-18.61,5.14-30.01,5.14s-22.05-1.83-30.01-5.14c-6.72-2.8-10.76-6.42-10.76-9.68v-.75c0-3.97,4.05-6.59,7.7-5.05.07.03.14.06.21.09,8.84,3.68,20.51,5.71,32.86,5.71s24.02-2.03,32.86-5.71c.06-.03.12-.05.18-.08,3.66-1.54,7.71,1.08,7.71,5.05v.74h0Zm-10.74-12.55c-7.95,3.31-18.61,5.14-30.01,5.14s-22.05-1.83-30.01-5.14c-6.72-2.8-10.74-6.42-10.74-9.68,0,0-.02,0-.02,0v-.74c0-3.97,4.05-6.59,7.7-5.05.07.03.14.06.21.09,8.84,3.68,20.51,5.71,32.86,5.71s24.02-2.03,32.86-5.71c.06-.03.12-.05.18-.08,3.66-1.54,7.71,1.08,7.71,5.05v.74h0c0,3.26-4.01,6.88-10.74,9.68Zm0-22.23c-7.95,3.31-18.61,5.14-30.01,5.14s-22.05-1.83-30.01-5.14c-6.72-2.8-10.77-6.42-10.77-9.68,0,0,0,0,0-.01v-1.15c0-4.02,4.15-6.64,7.82-5,.04.02.08.03.12.05,8.89,3.94,20.55,6.11,32.84,6.11s23.95-2.17,32.84-6.1c.03-.01.06-.03.09-.04,3.68-1.64,7.82.98,7.82,5v1.14h0c0,3.26-4.01,6.88-10.74,9.68Z"/>
        <path class="cls-4" d="m18.32,57.08c7.96-3.52,18.56-5.46,29.84-5.46s21.87,1.94,29.84,5.47c6.83,3.02,10.91,6.98,10.91,10.58s-4.08,7.56-10.91,10.58c-7.97,3.53-18.56,5.47-29.84,5.47-23.32,0-40.75-8.48-40.75-16.06,0-3.6,4.08-7.56,10.91-10.58Zm70.9,78.49c0,3.27-4.03,6.91-10.79,9.72-7.99,3.33-18.7,5.16-30.15,5.16s-22.16-1.83-30.15-5.16c-6.76-2.82-10.81-6.45-10.81-9.72v-4.67c0-2.28,2.41-3.74,4.44-2.69,1.1.57,2.28,1.11,3.52,1.63,8.88,3.7,20.6,5.74,33.01,5.74s24.13-2.04,33.01-5.74c1.23-.51,2.38-1.05,3.47-1.61,2.04-1.05,4.46.41,4.46,2.7v4.64s0,0,0,0Zm-10.79-12.5c-7.99,3.33-18.7,5.16-30.15,5.16s-22.16-1.83-30.15-5.16c-6.76-2.82-10.79-6.45-10.79-9.72,0,0-.02,0-.02,0v-4.67c0-2.28,2.41-3.74,4.44-2.69,1.1.57,2.28,1.11,3.52,1.63,8.88,3.7,20.6,5.74,33.01,5.74s24.13-2.04,33.01-5.74c1.23-.51,2.38-1.05,3.47-1.61,2.04-1.05,4.46.41,4.46,2.7v4.64h0c0,3.27-4.03,6.91-10.79,9.72Zm0-22.22c-7.99,3.33-18.7,5.16-30.15,5.16s-22.15-1.83-30.15-5.16c-6.76-2.82-10.82-6.45-10.82-9.72,0,0,0,0,0-.01v-5.18c0-2.31,2.46-3.76,4.49-2.65,1.09.6,2.26,1.17,3.48,1.71,8.93,3.96,20.65,6.14,32.99,6.14s24.06-2.18,32.99-6.13c1.22-.54,2.37-1.11,3.45-1.7,2.03-1.11,4.49.34,4.49,2.65v5.18h0c0,3.27-4.03,6.91-10.79,9.72Z"/>
      </g>
      <g class="cls-3">
        <path class="cls-5" d="m229.2,61.07c1.92.68,3.75,1.55,5.49,2.61.76.46,1.14,1.35.95,2.22l-.92,4.15c-.46,2.07.85,4.11,2.91,4.56.37.08.76.11,1.14.08l4.22-.36c.88-.08,1.71.41,2.07,1.21,1.69,3.73,2.5,7.8,2.39,11.9-.03.88-.61,1.65-1.45,1.92l-4.07,1.29c-2.01.64-3.13,2.78-2.5,4.79.12.37.29.72.51,1.04l2.44,3.51c.51.72.5,1.69-.02,2.41-2.41,3.31-5.54,6.04-9.15,7.97-.78.41-1.73.29-2.38-.3l-3.13-2.87c-1.56-1.42-3.97-1.32-5.39.24-.26.29-.48.61-.64.96l-1.8,3.85c-.37.79-1.2,1.27-2.08,1.18-4.1-.39-8.05-1.73-11.54-3.93-.74-.47-1.11-1.35-.92-2.2l.92-4.14c.45-2.06-.86-4.1-2.92-4.55-.37-.08-.75-.11-1.13-.08l-4.23.36c-.88.08-1.71-.41-2.07-1.22-1.69-3.74-2.5-7.81-2.39-11.91.02-.88.61-1.66,1.45-1.92l4.07-1.29c2.01-.63,3.13-2.77,2.5-4.79-.12-.37-.29-.72-.51-1.04l-2.44-3.5c-.5-.73-.49-1.69.03-2.41,2.41-3.31,5.54-6.04,9.15-7.97.78-.42,1.73-.29,2.38.3l3.12,2.86c1.57,1.43,4,1.31,5.42-.26.26-.28.47-.6.63-.95l1.81-3.85c.38-.8,1.22-1.28,2.11-1.18,2.02.22,4.01.66,5.99,1.3Zm-6.05,17.67c-4.34-1.48-9.06.84-10.53,5.18-1.48,4.34.84,9.06,5.18,10.53,4.34,1.48,9.06-.84,10.53-5.18,1.48-4.34-.84-9.06-5.18-10.53Z"/>
      </g>
      <g class="cls-1">
        <path class="cls-7" d="m148.82,70.49c3.07-1.67,6.31-3.02,9.66-4.02,1.46-.44,3.04.1,3.93,1.34l4.26,5.95c2.12,2.96,6.24,3.64,9.2,1.52.54-.38,1.01-.84,1.41-1.37l4.39-5.81c.91-1.21,2.49-1.72,3.94-1.25,6.72,2.14,12.87,5.78,17.98,10.63,1.1,1.05,1.42,2.68.79,4.06l-3.03,6.7c-1.5,3.31-.04,7.21,3.26,8.71.61.27,1.25.46,1.91.54l7.29.91c1.51.19,2.74,1.31,3.05,2.8,1.47,6.9,1.35,14.04-.34,20.89-.36,1.47-1.61,2.55-3.12,2.7l-7.28.71c-3.61.35-6.26,3.57-5.9,7.18.06.66.23,1.32.49,1.93l2.85,6.74c.59,1.39.24,3-.87,4.02-5.22,4.8-11.49,8.31-18.31,10.25-1.45.41-3-.13-3.88-1.36l-4.24-5.94c-2.12-2.95-6.24-3.62-9.19-1.5-.53.38-1,.84-1.4,1.36l-4.41,5.83c-.91,1.21-2.49,1.71-3.94,1.25-6.72-2.14-12.88-5.78-17.99-10.65-1.1-1.05-1.42-2.68-.79-4.07l3.04-6.7c1.51-3.3.05-7.2-3.25-8.71-.61-.28-1.26-.46-1.93-.54l-7.29-.91c-1.51-.19-2.73-1.31-3.05-2.8-1.47-6.9-1.35-14.04.34-20.89.36-1.47,1.62-2.55,3.13-2.7l7.25-.7c3.63-.37,6.27-3.61,5.91-7.24-.07-.65-.23-1.29-.48-1.9l-2.84-6.74c-.6-1.41-.23-3.04.91-4.06,2.61-2.33,5.46-4.38,8.56-6.17Zm15.65,28.08c-6.89,3.85-9.35,12.56-5.49,19.45,3.85,6.89,12.56,9.35,19.45,5.49,6.89-3.85,9.35-12.56,5.49-19.45-3.85-6.89-12.56-9.35-19.45-5.49Z"/>
      </g>
    </g>
  </g>
</svg>