<svg width="111" height="40" viewBox="0 0 111 40" fill="none" xmlns="http://www.w3.org/2000/svg">
<g clip-path="url(#clip0_20572_56080)">
<path d="M47.8531 14.4391V25.561H45.9222V16.8334H45.8965L42.4466 25.561H41.1593L37.6322 16.8334H37.6065V25.561H35.8301V14.4391H38.6106L41.803 22.6776H41.8545L45.2271 14.4391H47.8531ZM49.4493 15.2887C49.4493 14.9797 49.5523 14.7223 49.784 14.5163C50.0157 14.3104 50.2732 14.2074 50.5821 14.2074C50.9168 14.2074 51.2 14.3104 51.406 14.5163C51.6119 14.7223 51.7406 14.9797 51.7406 15.2887C51.7406 15.5976 51.6377 15.8551 51.406 16.061C51.1743 16.267 50.9168 16.37 50.5821 16.37C50.2474 16.37 49.99 16.267 49.784 16.061C49.578 15.8293 49.4493 15.5719 49.4493 15.2887ZM51.5347 17.58V25.561H49.6553V17.58H51.5347ZM57.2244 24.1965C57.5076 24.1965 57.8165 24.145 58.1512 23.9906C58.4859 23.8618 58.7948 23.6816 59.078 23.4757V25.2263C58.7691 25.4066 58.4344 25.5353 58.0482 25.6125C57.6621 25.6898 57.2501 25.7413 56.7867 25.7413C55.6024 25.7413 54.6499 25.3808 53.929 24.6342C53.1824 23.8876 52.8219 22.935 52.8219 21.8022C52.8219 20.515 53.2081 19.4594 53.9547 18.6356C54.7014 17.8117 55.7569 17.3998 57.1472 17.3998C57.5076 17.3998 57.868 17.4513 58.2027 17.5285C58.5631 17.6057 58.8463 17.7345 59.0523 17.8375V19.6396C58.7691 19.4337 58.4602 19.2534 58.177 19.1505C57.868 19.0475 57.5591 18.9702 57.2501 18.9702C56.5035 18.9702 55.9114 19.202 55.448 19.6911C54.9845 20.1803 54.7786 20.8239 54.7786 21.6478C54.7786 22.4459 55.0103 23.0895 55.448 23.5272C55.8856 23.9648 56.4778 24.1965 57.2244 24.1965ZM64.4073 17.4513C64.5618 17.4513 64.6905 17.4513 64.8192 17.477C64.948 17.5028 65.0509 17.5285 65.1282 17.5543V19.4594C65.0252 19.3822 64.8965 19.3049 64.6905 19.2534C64.4846 19.202 64.2786 19.1505 63.9954 19.1505C63.532 19.1505 63.1458 19.3564 62.8369 19.7426C62.5279 20.1288 62.3477 20.7209 62.3477 21.5448V25.561H60.4683V17.58H62.3477V18.8415H62.3734C62.5537 18.4039 62.8111 18.0692 63.1458 17.8117C63.5062 17.58 63.9182 17.4513 64.4073 17.4513ZM65.2312 21.6992C65.2312 20.3862 65.6173 19.3307 66.3382 18.5583C67.0848 17.786 68.1146 17.3998 69.4276 17.3998C70.6634 17.3998 71.6417 17.7602 72.3369 18.5068C73.032 19.2534 73.3924 20.2575 73.3924 21.519C73.3924 22.8063 73.0062 23.8361 72.2854 24.6085C71.5388 25.3808 70.5347 25.767 69.2474 25.767C68.0117 25.767 67.0333 25.4066 66.3125 24.6857C65.5916 23.9391 65.2312 22.935 65.2312 21.6992ZM67.1878 21.622C67.1878 22.4459 67.368 23.0895 67.7542 23.5272C68.1404 23.9648 68.681 24.1965 69.3761 24.1965C70.0455 24.1965 70.5862 23.9906 70.9466 23.5272C71.307 23.0895 71.4873 22.4459 71.4873 21.5705C71.4873 20.7209 71.307 20.0773 70.9466 19.6139C70.5862 19.1762 70.0455 18.9445 69.4019 18.9445C68.7068 18.9445 68.1919 19.1762 67.8057 19.6396C67.368 20.1288 67.1878 20.7724 67.1878 21.622ZM76.1986 19.6911C76.1986 19.9486 76.2759 20.1803 76.4561 20.3347C76.6363 20.4892 76.9967 20.6694 77.5889 20.9011C78.3355 21.2101 78.8761 21.5448 79.1593 21.9052C79.4683 22.2914 79.6228 22.7291 79.6228 23.2697C79.6228 24.0163 79.3396 24.6085 78.7474 25.0719C78.181 25.5353 77.3829 25.7413 76.4046 25.7413C76.0699 25.7413 75.7095 25.6898 75.2976 25.6125C74.8856 25.5353 74.5509 25.4323 74.2677 25.3036V23.4499C74.6024 23.6816 74.9886 23.8876 75.3748 24.0163C75.761 24.145 76.1214 24.2223 76.4561 24.2223C76.868 24.2223 77.2027 24.1708 77.3829 24.0421C77.5889 23.9133 77.6919 23.7331 77.6919 23.4499C77.6919 23.1925 77.5889 22.9865 77.3829 22.7805C77.177 22.6003 76.765 22.3944 76.1986 22.1627C75.5035 21.8795 75.0144 21.5448 74.7312 21.1843C74.448 20.8239 74.2935 20.3605 74.2935 19.7941C74.2935 19.0732 74.5767 18.4811 75.1431 18.0177C75.7095 17.5543 76.4561 17.3226 77.3572 17.3226C77.6404 17.3226 77.9493 17.3483 78.284 17.4255C78.6187 17.5028 78.9276 17.58 79.1593 17.6572V19.4852C78.9019 19.3307 78.6187 19.1762 78.284 19.0475C77.9493 18.9188 77.6146 18.8673 77.3057 18.8673C76.9453 18.8673 76.6621 18.9445 76.4818 19.0732C76.3016 19.2534 76.1986 19.4337 76.1986 19.6911ZM80.4209 21.6992C80.4209 20.3862 80.807 19.3307 81.5279 18.5583C82.2745 17.786 83.3043 17.3998 84.6173 17.3998C85.8531 17.3998 86.8314 17.7602 87.5266 18.5068C88.2217 19.2534 88.5821 20.2575 88.5821 21.519C88.5821 22.8063 88.1959 23.8361 87.4751 24.6085C86.7285 25.3808 85.7244 25.767 84.4371 25.767C83.2014 25.767 82.223 25.4066 81.5022 24.6857C80.807 23.9391 80.4209 22.935 80.4209 21.6992ZM82.3775 21.622C82.3775 22.4459 82.5577 23.0895 82.9439 23.5272C83.3301 23.9648 83.8707 24.1965 84.5659 24.1965C85.2352 24.1965 85.7759 23.9906 86.1363 23.5272C86.4967 23.0895 86.677 22.4459 86.677 21.5705C86.677 20.7209 86.4967 20.0773 86.1363 19.6139C85.7759 19.1762 85.2352 18.9445 84.5916 18.9445C83.8965 18.9445 83.3816 19.1762 82.9954 19.6396C82.5835 20.1288 82.3775 20.7724 82.3775 21.622ZM94.8382 19.1247H92.032V25.561H90.1268V19.1247H88.7881V17.58H90.1268V16.473C90.1268 15.6491 90.41 14.954 90.9507 14.4133C91.4913 13.8727 92.1864 13.6152 93.036 13.6152C93.2677 13.6152 93.4737 13.641 93.6539 13.641C93.8341 13.641 93.9886 13.6925 94.1173 13.744V15.3659C94.0659 15.3402 93.9371 15.2887 93.7827 15.2372C93.6282 15.1857 93.448 15.16 93.242 15.16C92.8558 15.16 92.5469 15.2887 92.3409 15.5204C92.135 15.7521 92.032 16.1383 92.032 16.6017V17.5543H94.8382V15.7521L96.7176 15.1857V17.5543H98.6228V19.099H96.7176V22.832C96.7176 23.3212 96.8206 23.6559 96.9751 23.8618C97.1553 24.0678 97.4385 24.1708 97.8247 24.1708C97.9276 24.1708 98.0564 24.145 98.2108 24.0936C98.3653 24.0421 98.494 23.9906 98.597 23.9133V25.4581C98.4683 25.5353 98.2881 25.5868 98.0049 25.6383C97.7217 25.6898 97.4642 25.7155 97.181 25.7155C96.3829 25.7155 95.7908 25.5095 95.4046 25.0976C95.0184 24.6857 94.8125 24.0421 94.8125 23.1925L94.8382 19.1247Z" fill="#A19F9D"/>
<path d="M20.5119 10.7317H11.707V19.5366H20.5119V10.7317Z" fill="#F25022"/>
<path d="M30.2434 10.7317H21.4385V19.5366H30.2434V10.7317Z" fill="#7FBA00"/>
<path d="M20.5119 20.4634H11.707V29.2683H20.5119V20.4634Z" fill="#00A4EF"/>
<path d="M30.2434 20.4634H21.4385V29.2683H30.2434V20.4634Z" fill="#FFB900"/>
</g>
<defs>
<clipPath id="clip0_20572_56080">
<rect width="86.916" height="18.5366" fill="white" transform="translate(11.707 10.7317)"/>
</clipPath>
</defs>
</svg>
