<svg width="658" height="562" xmlns="http://www.w3.org/2000/svg" xmlns:xlink="http://www.w3.org/1999/xlink" xml:space="preserve" overflow="hidden"><defs><filter id="fx0" x="-10%" y="-10%" width="120%" height="120%" filterUnits="userSpaceOnUse" primitiveUnits="userSpaceOnUse"><feComponentTransfer color-interpolation-filters="sRGB"><feFuncR type="discrete" tableValues="0 0"/><feFuncG type="discrete" tableValues="0 0"/><feFuncB type="discrete" tableValues="0 0"/><feFuncA type="linear" slope="0.4" intercept="0"/></feComponentTransfer><feGaussianBlur stdDeviation="6.11111 6.11111"/></filter><filter id="fx1" x="-10%" y="-10%" width="120%" height="120%" filterUnits="userSpaceOnUse" primitiveUnits="userSpaceOnUse"><feComponentTransfer color-interpolation-filters="sRGB"><feFuncR type="discrete" tableValues="0 0"/><feFuncG type="discrete" tableValues="0 0"/><feFuncB type="discrete" tableValues="0 0"/><feFuncA type="linear" slope="0.4" intercept="0"/></feComponentTransfer><feGaussianBlur stdDeviation="6.11111 6.11111"/></filter><filter id="fx2" x="-10%" y="-10%" width="120%" height="120%" filterUnits="userSpaceOnUse" primitiveUnits="userSpaceOnUse"><feComponentTransfer color-interpolation-filters="sRGB"><feFuncR type="discrete" tableValues="0 0"/><feFuncG type="discrete" tableValues="0 0"/><feFuncB type="discrete" tableValues="0 0"/><feFuncA type="linear" slope="0.4" intercept="0"/></feComponentTransfer><feGaussianBlur stdDeviation="6.11111 6.11111"/></filter><filter id="fx3" x="-10%" y="-10%" width="120%" height="120%" filterUnits="userSpaceOnUse" primitiveUnits="userSpaceOnUse"><feComponentTransfer color-interpolation-filters="sRGB"><feFuncR type="discrete" tableValues="0 0"/><feFuncG type="discrete" tableValues="0 0"/><feFuncB type="discrete" tableValues="0 0"/><feFuncA type="linear" slope="0.4" intercept="0"/></feComponentTransfer><feGaussianBlur stdDeviation="7.63889 7.63889"/></filter><clipPath id="clip4"><rect x="3466" y="-652" width="658" height="562"/></clipPath><clipPath id="clip5"><path d="M3947.35-461.376C3941.73-460.713 3936.16-458.478 3930.93-454.694 3911.62-440.78 3898.64-406.662 3894.33-381.539L3876.61-389.636C3859.8-397.324 3842.42-397.477 3827.68-390.097 3811.73-382.082 3799.99-365.598 3795.53-344.833 3793.97-336.278 3792.87-327.639 3792.23-318.974 3791.77-314.085 3791.34-309.426 3790.88-306.199 3789.49-296.38 3788.54-276.01 3791.44-260.396 3796-236.299 3806.54-219.253 3823.61-208.303 3835.43-201.174 3847.63-194.72 3860.18-188.964L3860.15-188.955C3870.49-184.23 3891.26-176.047 3901.32-172.737 3920.59-166.406 3940.14-174.109 3947.96-191.216L3995.42-295.024C3997-298.487 3996.99-302.469 3995.39-305.928 3974.93-350.396 3979.44-381.95 3982.74-404.996 3985.71-425.818 3988.75-447.381 3964.16-458.622 3958.67-461.13 3952.98-462.04 3947.35-461.376ZM3466-652 4124-652 4124-90 3466-90Z" fill-rule="evenodd" clip-rule="evenodd"/></clipPath><clipPath id="clip6"><rect x="-3" y="-3" width="269" height="351"/></clipPath><clipPath id="clip7"><rect x="0" y="0" width="262" height="346"/></clipPath><clipPath id="clip8"><path d="M4037.94-310.688C4018.25-310.125 3998.53-296.789 3988.66-275.244L3955.66-203.047C3942.55-174.297 3951.95-141.866 3976.66-130.527L3983.87-127.233C4008.61-115.963 4039.3-130.07 4052.47-158.789L4085.47-230.986C4098.58-259.736 4089.17-292.192 4064.46-303.531L4057.26-306.825C4051.07-309.644 4044.51-310.876 4037.94-310.688ZM3466-652 4124-652 4124-90 3466-90Z" fill-rule="evenodd" clip-rule="evenodd"/></clipPath></defs><g clip-path="url(#clip4)" transform="translate(-3466 652)"><g filter="url(#fx0)" transform="translate(3465 -653)"><g><path d="M338.663 436.52C323.052 441.423 291.912 449.403 276.937 452.334 248.274 457.934 221.717 443.432 213.601 417.592L164.35 260.782C162.707 255.551 163.432 249.863 166.335 245.206 203.52 185.326 202.719 139.434 202.122 105.915 201.6 75.6314 201.114 44.2788 238.259 32.6123L238.259 32.6123C254.831 27.4072 271.436 31.4834 285.037 44.1653 310.145 67.4987 322.588 118.568 324.26 155.237L351.015 146.834C376.419 138.855 401.269 141.742 421.02 154.923 442.378 169.227 456.199 194.877 458.863 225.345 459.564 237.847 459.594 250.389 458.952 262.884 458.746 269.953 458.521 276.685 458.596 281.378 458.829 295.657 456.551 324.933 449.612 346.725 438.795 380.341 420.682 402.811 394.33 415.405 376.176 423.48 357.583 430.52 338.629 436.502Z" stroke="#6C47A7" stroke-width="21.6525" stroke-linecap="round" stroke-linejoin="round" stroke-miterlimit="10" fill="#6A47A6" fill-rule="evenodd"/><path d="M161.744 499.176 150.86 502.595C113.491 514.275 72.1616 488.631 58.4769 445.243L24.2235 336.183C10.6428 292.762 29.8802 248.067 67.217 236.283L78.101 232.865C115.496 221.177 156.808 246.854 170.466 290.251L204.72 399.311C218.301 442.732 199.081 487.393 161.744 499.176Z" fill="#9768D2" fill-rule="evenodd"/></g></g><path d="M3793.94-226.203C3778.33-221.3 3747.19-213.32 3732.21-210.389 3703.55-204.789 3676.99-219.291 3668.88-245.131L3619.63-401.941C3617.98-407.171 3618.71-412.859 3621.61-417.517 3658.8-477.397 3658-523.289 3657.4-556.808 3656.88-587.091 3656.39-618.444 3693.54-630.11L3693.54-630.11C3710.11-635.315 3726.71-631.239 3740.31-618.557 3765.42-595.224 3777.87-544.155 3779.54-507.486L3806.29-515.889C3831.7-523.868 3856.55-520.98 3876.3-507.8 3897.66-493.495 3911.48-467.846 3914.14-437.378 3914.84-424.875 3914.87-412.334 3914.23-399.839 3914.02-392.77 3913.8-386.038 3913.87-381.344 3914.11-367.066 3911.83-337.79 3904.89-315.998 3894.07-282.382 3875.96-259.911 3849.61-247.317 3831.45-239.243 3812.86-232.202 3793.91-226.221Z" stroke="#6C47A7" stroke-width="21.6525" stroke-linecap="round" stroke-linejoin="round" stroke-miterlimit="10" fill="#6A47A6" fill-rule="evenodd"/><g filter="url(#fx1)" transform="translate(3465 -443)"><g><path d="M161.744 289.176 150.86 292.595C113.491 304.275 72.1616 278.631 58.4769 235.243L24.2235 126.183C10.6428 82.7621 29.8802 38.0672 67.217 26.2833L78.101 22.8649C115.496 11.1769 156.808 36.8545 170.466 80.2514L204.72 189.311C218.301 232.732 199.081 277.393 161.744 289.176Z" fill="#9768D2" fill-rule="evenodd"/></g></g><path d="M3617.02-163.546 3606.14-160.128C3568.77-148.448 3527.44-174.091 3513.75-217.48L3479.5-326.539C3465.92-369.961 3485.16-414.655 3522.49-426.439L3533.38-429.858C3570.77-441.546 3612.09-415.868 3625.74-372.471L3660-263.412C3673.58-219.991 3654.36-175.33 3617.02-163.546Z" fill="#9768D2" fill-rule="evenodd"/><g clip-path="url(#clip5)"><g clip-path="url(#clip6)" filter="url(#fx2)" transform="translate(3772 -479)"><g clip-path="url(#clip7)"><path d="M78.9204 288.498C67.557 288.498 45.2647 287.304 34.7333 286.13 14.5779 283.876 0 268.742 0 249.933L0 135.791C0 131.984 1.66406 128.366 4.55645 125.885 41.6533 93.95 50.672 63.378 57.2523 41.0463 63.2078 20.8738 69.4095 0 96.4478 0L96.4478 0C108.511 0 118.664 6.15598 125.036 17.3881 136.815 38.0723 134.433 74.497 127.91 99.1398L147.385 99.1398C165.876 99.1398 181.74 106.224 192.082 119.066 203.256 132.988 207.076 152.858 202.5 173.599 200.363 182.028 197.773 190.343 194.748 198.488 193.141 203.128 191.59 207.542 190.664 210.667 187.847 220.176 180.246 239.099 171.113 252.092 156.952 272.114 140.275 283.232 120.196 286.092 106.488 287.665 92.704 288.46 78.9016 288.479Z" stroke="#BA8AE7" stroke-width="14.8958" stroke-linecap="round" stroke-linejoin="round" stroke-miterlimit="10" fill="#B786E5" fill-rule="evenodd" transform="matrix(-0.90947 -0.41577 -0.41577 0.90947 289.598 70.2005)"/></g></g></g><path d="M78.9204 288.498C67.557 288.498 45.2647 287.304 34.7333 286.13 14.5779 283.876 0 268.742 0 249.933L0 135.791C0 131.984 1.66406 128.366 4.55645 125.885 41.6533 93.95 50.672 63.378 57.2523 41.0463 63.2078 20.8738 69.4095 0 96.4478 0L96.4478 0C108.511 0 118.664 6.15598 125.036 17.3881 136.815 38.0723 134.433 74.497 127.91 99.1398L147.385 99.1398C165.876 99.1398 181.74 106.224 192.082 119.066 203.256 132.988 207.076 152.858 202.5 173.599 200.363 182.028 197.773 190.343 194.748 198.488 193.141 203.128 191.59 207.542 190.664 210.667 187.847 220.176 180.246 239.099 171.113 252.092 156.952 272.114 140.275 283.232 120.196 286.092 106.488 287.665 92.704 288.46 78.9016 288.479Z" stroke="#BA8AE7" stroke-width="14.8958" stroke-linecap="round" stroke-linejoin="round" stroke-miterlimit="10" fill="#B786E5" fill-rule="evenodd" transform="matrix(-0.90947 -0.41577 -0.41577 0.90947 4051.88 -418.522)"/><g clip-path="url(#clip8)"><g filter="url(#fx3)" transform="translate(3917 -344)"><g><path d="M58.339 197.724 50.2583 197.724C22.5255 197.685 0.0384434 171.583 0 139.357L0 58.3862C0.0384434 26.1596 22.5255 0.0384434 50.2583 0L58.339 0C86.0917 0.0384434 108.56 26.1596 108.579 58.3862L108.579 139.357C108.54 171.583 86.0719 197.685 58.339 197.724Z" stroke="#EEC9FF" stroke-width="15.1937" stroke-linecap="round" stroke-linejoin="round" stroke-miterlimit="10" fill="#F0CCFF" fill-rule="evenodd" transform="matrix(-0.90947 -0.41577 -0.41577 0.90947 194.048 59.6348)"/></g></g></g><path d="M57.1951 193.847 49.2729 193.847C22.0838 193.809 0.0376896 168.219 0 136.625L0 57.2414C0.0376896 25.6466 22.0838 0.0376896 49.2729 0L57.1951 0C84.4036 0.0376896 106.431 25.6466 106.45 57.2414L106.45 136.625C106.411 168.219 84.3842 193.809 57.1951 193.847Z" stroke="#EEC9FF" stroke-width="14.8958" stroke-linecap="round" stroke-linejoin="round" stroke-miterlimit="10" fill="#F0CCFF" fill-rule="evenodd" transform="matrix(-0.90947 -0.41577 -0.41577 0.90947 4109.27 -283.045)"/></g></svg>