<svg width="720" height="720" xmlns="http://www.w3.org/2000/svg" xmlns:xlink="http://www.w3.org/1999/xlink" xml:space="preserve" overflow="hidden"><defs><clipPath id="clip0"><rect x="280" y="0" width="720" height="720"/></clipPath></defs><g clip-path="url(#clip0)" transform="translate(-280 0)"><path d="M833.367 497.65 652.426 497.65 652.162 675.674 833.102 675.674Z" fill="#E4E4E4"/><path d="M718.426 542.917 756.676 581.167 781.426 556.417 743.176 518.167 718.463 518.203Z" fill="#FFFFFF"/><path d="M833.367 539.917 745.951 539.917 745.951 498.972 739.951 498.972 739.951 539.917 652.426 539.917 652.426 545.917 739.951 545.917 739.951 675.683 745.951 675.683 745.951 545.917 833.367 545.917Z" fill="#D1D1D1"/><path d="M798.578 479.871C796.533 473.582 786.236 471.622 774.32 475.113 777.25 470.803 779.314 466.256 780.159 462.175 781.255 456.886 780.226 452.786 777.261 450.632 774.296 448.477 770.079 448.766 765.388 451.442 761.752 453.516 758.052 456.904 754.848 461.046 754.471 448.667 749.432 439.508 742.83 439.508 736.218 439.508 731.174 448.691 730.809 461.096 723.229 451.31 713.777 446.87 708.435 450.746 703.086 454.633 704.42 465.029 711.418 475.282 699.526 471.812 689.257 473.775 687.215 480.055 685.094 486.585 692.912 494.57 705.401 498.629 712.275 500.861 724.962 501.289 733.682 501.289 738.804 501.289 748.292 501.106 752.112 501.106 760.831 501.106 773.52 500.677 780.392 498.445 792.881 494.387 800.699 486.401 798.578 479.871ZM758.832 465.716C761.691 461.781 765.164 458.479 768.362 456.654 770.237 455.584 771.659 455.205 772.609 455.205 773.122 455.205 773.498 455.315 773.735 455.487 774.409 455.977 774.959 457.704 774.285 460.957 773.537 464.562 771.469 468.886 768.611 472.82 768.611 472.82 768.611 472.82 768.611 472.821 765.982 476.44 760.585 481.106 755.272 485.26 752.975 486.809 750.784 488.354 748.84 489.762 748.83 489.77 748.825 489.766 748.829 489.754 749.562 487.48 750.348 484.939 751.103 482.298 753.417 475.946 756.195 469.346 758.832 465.716ZM742.83 445.508C744.881 445.508 748.874 451.522 748.874 462.544 748.874 467.018 747.251 473.964 745.395 480.447 744.447 483.049 743.582 485.588 742.836 487.87 742.833 487.882 742.826 487.882 742.823 487.87 742.08 485.597 741.22 483.077 740.278 480.495 738.417 473.998 736.786 467.029 736.786 462.544 736.785 451.521 740.778 445.508 742.83 445.508ZM711.962 455.601C712.217 455.416 712.592 455.318 713.067 455.318 715.691 455.318 721.38 458.281 726.864 465.83 726.864 465.831 726.864 465.831 726.864 465.831 729.493 469.449 732.263 476.021 734.572 482.357 735.335 485.02 736.128 487.582 736.866 489.869 736.87 489.88 736.865 489.884 736.855 489.877 734.916 488.473 732.737 486.938 730.454 485.401 725.133 481.241 719.721 476.564 717.085 472.936 710.607 464.018 710.303 456.806 711.962 455.601ZM707.255 492.922C696.772 489.516 692.287 483.86 692.921 481.91 693.303 480.734 695.979 479.563 700.34 479.563 703.217 479.563 706.825 480.072 710.99 481.425 710.99 481.426 710.99 481.426 710.99 481.426 715.244 482.807 721.348 486.496 726.94 490.264 729.266 492.084 731.552 493.789 733.592 495.269 733.602 495.277 733.6 495.283 733.587 495.283 725.272 495.301 713.34 494.898 707.255 492.922ZM778.537 492.737C772.452 494.715 760.532 495.129 752.205 495.1 752.192 495.1 752.19 495.094 752.2 495.086 754.229 493.612 756.498 491.917 758.805 490.112 764.41 486.333 770.537 482.627 774.803 481.241 785.284 477.836 792.238 479.774 792.872 481.726 793.505 483.676 789.021 489.332 778.537 492.737Z" fill="#D1D1D1"/><path d="M444.057 495.683 578.926 495.683 578.926 674.183 444.057 674.183Z" fill="#737373"/><path d="M552.63 564.049C548.921 561.893 544.479 561.871 540.749 563.993L515.054 578.613 515.054 495.683 509.429 495.683 509.429 579.466 482.234 563.993C478.503 561.872 474.062 561.892 470.353 564.05 466.643 566.207 464.429 570.057 464.429 574.348 464.429 580.917 469.773 586.261 476.342 586.261L505.566 586.261 481.134 610.694 485.112 614.672 509.429 590.354 509.429 673.433 515.054 673.433 515.054 590.807 538.918 614.672 542.896 610.694 518.463 586.261 546.641 586.261C553.21 586.261 558.554 580.917 558.554 574.348 558.554 570.057 556.339 566.207 552.63 564.049ZM476.342 580.637C472.445 580.637 469.365 577.074 470.188 573.035 470.483 571.584 471.314 570.267 472.493 569.371 473.652 568.492 474.997 568.051 476.342 568.051 477.41 568.051 478.478 568.328 479.453 568.883L500.087 580.623C500.1 580.63 500.099 580.637 500.083 580.637L476.342 580.637ZM546.434 580.637 522.9 580.637C522.885 580.637 522.883 580.631 522.896 580.623L543.531 568.883C545.5 567.763 547.844 567.774 549.802 568.912 551.845 570.1 553.029 572.261 552.923 574.644 552.771 578.035 549.828 580.637 546.434 580.637Z" fill="#505050"/><path d="M654.053 557.183 654.053 535.531C654.053 516.608 638.657 501.212 619.734 501.212 618.374 501.212 617.034 501.301 615.714 501.456 614.393 501.301 613.054 501.212 611.693 501.212 592.77 501.212 577.374 516.607 577.374 535.531L577.374 557.183 554.926 557.183 554.926 675.683 672.676 675.683 672.676 557.183 654.053 557.183ZM650.111 535.531 650.111 557.183 646.011 557.183 646.011 535.531C646.011 524 640.289 513.786 631.54 507.56 631.509 507.539 631.512 507.533 631.547 507.547 642.446 512.165 650.111 522.969 650.111 535.531ZM615.714 505.429C630.569 507.403 642.07 520.145 642.07 535.531L642.07 557.183 589.358 557.183 589.358 535.531C589.358 520.145 600.859 507.403 615.714 505.429ZM581.316 535.531C581.316 522.969 588.981 512.165 599.88 507.547 599.915 507.533 599.918 507.539 599.887 507.56 591.139 513.786 585.416 524 585.416 535.531L585.416 557.183 581.316 557.183 581.316 535.531Z" fill="#0078D4"/><path d="M615.294 684.683 497.047 684.669 497.047 605.837 615.294 605.837Z" fill="#F1F1F1"/><path d="M556.171 673.594C555.954 673.594 555.749 673.501 555.606 673.338L500.753 610.601C500.48 610.289 500.512 609.815 500.824 609.543 501.137 609.271 501.61 609.302 501.882 609.614L556.166 671.698C556.169 671.702 556.174 671.702 556.177 671.698L610.461 609.614C610.734 609.302 611.208 609.27 611.519 609.543 611.831 609.815 611.862 610.289 611.59 610.601L556.736 673.338C556.593 673.501 556.387 673.594 556.171 673.594Z" fill="#D1D1D1"/><path d="M502.959 679.507C502.767 679.507 502.575 679.433 502.429 679.287 502.136 678.994 502.136 678.52 502.429 678.227L528.378 652.278C528.671 651.985 529.145 651.985 529.438 652.278 529.731 652.571 529.731 653.045 529.438 653.339L503.49 679.287C503.343 679.433 503.151 679.507 502.959 679.507Z" fill="#D1D1D1"/><path d="M608.539 678.664C608.347 678.664 608.155 678.59 608.009 678.444L582.573 653.009C582.28 652.716 582.28 652.242 582.573 651.949 582.866 651.656 583.341 651.656 583.634 651.949L609.069 677.383C609.362 677.677 609.362 678.151 609.069 678.444 608.923 678.59 608.731 678.664 608.539 678.664Z" fill="#D1D1D1"/><path d="M556.172 628.95C556.169 628.953 556.172 628.953 556.169 628.95 556.026 628.803 545.331 617.85 545.331 627.637 545.331 634.836 556.17 643.404 556.17 643.404 556.17 643.404 567.01 634.836 567.01 627.637 567.01 617.85 556.316 628.803 556.172 628.95Z" fill="#0078D4"/><path d="M616.685 509.977C616.493 509.906 616.141 509.885 615.863 510.188L594.113 534.938C593.839 535.25 593.87 535.724 594.181 535.996 594.492 536.27 594.966 536.24 595.239 535.928L612.896 515.836C612.918 515.811 612.924 515.815 612.908 515.845L594.01 552.338C593.819 552.705 593.964 553.158 594.331 553.349 594.441 553.406 594.559 553.432 594.675 553.432 594.947 553.432 595.208 553.286 595.342 553.027L613.881 517.227C613.898 517.193 613.905 517.195 613.896 517.232L604.452 552.488C604.345 552.888 604.583 553.3 604.982 553.407 605.048 553.424 605.113 553.432 605.177 553.432 605.508 553.432 605.811 553.211 605.901 552.877L615.662 516.436C615.67 516.406 615.677 516.406 615.677 516.438L615.677 552.682C615.677 553.097 616.013 553.432 616.427 553.432 616.841 553.432 617.177 553.097 617.177 552.682L617.177 510.682C617.176 510.24 616.867 510.044 616.685 509.977Z" fill="#E5E5E5"/><path d="M681.135 360.759C680.762 360.578 680.313 360.733 680.132 361.105L619.404 485.759C619.4 485.768 619.387 485.763 619.389 485.754L658.469 338C658.575 337.6 658.336 337.189 657.935 337.083 657.537 336.979 657.124 337.216 657.018 337.616L617.445 487.233C617.443 487.241 617.43 487.24 617.43 487.231L617.43 334.996C617.43 334.582 617.094 334.246 616.68 334.246 616.266 334.246 615.93 334.582 615.93 334.996L615.93 486.927C615.93 486.936 615.917 486.938 615.915 486.928L578.594 338.189C578.494 337.786 578.086 337.543 577.685 337.643 577.283 337.744 577.039 338.151 577.14 338.553L614.185 486.199C614.187 486.208 614.175 486.213 614.171 486.205L550.416 355.48C550.234 355.108 549.784 354.953 549.413 355.135 549.041 355.316 548.885 355.766 549.068 356.138L616.005 493.387C616.113 493.602 616.323 493.809 616.656 493.809 617.028 493.809 617.214 493.621 617.353 493.387L681.478 361.762C681.662 361.39 681.507 360.94 681.135 360.759Z" fill="#E5E5E5"/><path d="M616.119 17.1833C579.005 17.1833 548.892 54.624 548.625 100.937 548.624 101.144 548.619 101.351 548.619 101.558 548.619 135.935 565.066 165.505 588.659 178.654 597.049 183.33 606.34 185.933 616.119 185.933 627.528 185.933 638.274 182.389 647.697 176.143 668.879 162.1 683.362 134.375 683.61 102.389 683.613 102.112 683.619 101.836 683.619 101.558 683.619 54.9593 653.398 17.1833 616.119 17.1833Z" fill="#E8E8E8"/><path d="M738.235 89.2463C719.413 84.2025 699.784 89.6333 683.61 102.39 669.1 114 650.05 153.45 647.698 176.143 646.266 212.432 664.71 244.248 694.559 252.246 730.568 261.895 769.537 233.228 781.598 188.216 793.658 143.205 774.244 98.8942 738.235 89.2463Z" fill="#D1D1D1"/><path d="M683.61 102.389C668.842 114.038 656.954 131.792 651.198 153.275 649.134 160.975 647.994 168.654 647.698 176.142 668.88 162.1 683.363 134.375 683.61 102.389Z" fill="#DDDDDD"/><path d="M548.625 100.937C533.294 90.3735 515.354 86.1892 498.093 90.8145 462.084 100.463 442.671 144.773 454.731 189.785 466.792 234.796 505.76 263.463 541.77 253.814 571.359 245.885 589.739 214.55 588.659 178.654 586.75 146.55 563.65 114.15 548.625 100.937Z" fill="#DBDBDB"/><path d="M548.625 100.937C548.624 101.144 548.619 101.351 548.619 101.558 548.619 135.935 565.066 165.505 588.659 178.654 588.426 170.868 587.281 162.868 585.131 154.844 578.852 131.41 565.277 112.41 548.625 100.937Z" fill="#D1D1D1"/><path d="M678.476 202.916C667.505 174.874 644.462 155.558 617.806 155.558 591.772 155.558 569.185 173.983 557.924 200.969 553.059 212.625 550.306 225.877 550.306 239.933 550.306 271.708 564.359 299.375 585.117 313.766 593.406 319.512 602.762 323.144 612.721 324.071 614.042 324.194 614.608 325.819 613.67 326.757L609.864 330.562C609.857 330.569 609.859 330.575 609.869 330.575L625.743 330.575C625.753 330.575 625.755 330.569 625.748 330.562L621.942 326.757C620.999 325.814 621.576 324.194 622.904 324.07 633.807 323.052 643.988 318.797 652.834 312.07 672.302 297.268 685.305 270.499 685.305 239.932 685.306 226.654 682.848 214.093 678.476 202.916Z" fill="#0078D4"/><path d="M584.35 251.25C578.78 230.461 559.525 202.275 557.924 200.969 541.409 187.488 521.255 181.485 501.878 186.677 465.869 196.326 446.455 240.636 458.515 285.647 470.023 328.594 506.025 356.66 540.582 350.764 541.89 350.541 542.854 351.965 542.192 353.113L539.5 357.774C539.495 357.783 539.498 357.787 539.508 357.785L554.842 353.677C554.852 353.674 554.853 353.668 554.844 353.663L550.182 350.972C549.032 350.309 549.159 348.593 550.404 348.132 565.948 342.376 577.922 329.857 585.117 313.766 587.45 308.55 590.416 273.888 584.35 251.25Z" fill="#737373"/><path d="M736.803 186.677C716.52 181.243 695.369 188.043 678.477 202.916 675.925 205.162 659.517 230.392 654.25 250.05 648.374 271.982 650.425 306.3 652.835 312.071 659.898 328.987 672.184 342.169 688.263 348.128 689.512 348.59 689.636 350.315 688.482 350.981L683.837 353.663C683.828 353.669 683.829 353.674 683.838 353.677L699.171 357.785C699.181 357.787 699.185 357.783 699.18 357.774L696.488 353.113C695.825 351.965 696.79 350.54 698.097 350.764 732.654 356.66 768.657 328.594 780.164 285.647 792.226 240.636 772.812 196.326 736.803 186.677Z" fill="#E5E5E5"/><path d="M685.306 239.933C685.306 226.654 682.848 214.093 678.476 202.916 665.432 214.509 655.032 231.049 649.765 250.706 643.889 272.638 645.488 294.401 652.836 312.07 672.303 297.268 685.306 270.499 685.306 239.933Z" fill="#F1F1F1"/><path d="M588.915 250.707C583.345 229.918 572.032 212.62 557.924 200.969 553.06 212.625 550.307 225.877 550.307 239.933 550.307 271.708 564.359 299.375 585.118 313.766 593.082 295.804 594.981 273.345 588.915 250.707Z" fill="#505050"/><path d="M575.697 193.743C575.262 193.743 574.823 193.618 574.437 193.355 573.407 192.658 573.139 191.259 573.836 190.23 584.727 174.154 601.164 164.557 617.806 164.557 619.049 164.557 620.056 165.565 620.056 166.807 620.056 168.05 619.049 169.057 617.806 169.057 602.658 169.057 587.613 177.917 577.561 192.754 577.126 193.396 576.418 193.743 575.697 193.743Z" fill="#FFFFFF"/><path d="M466.408 254.674C466.353 254.674 466.297 254.672 466.241 254.668 465.001 254.577 464.07 253.498 464.162 252.26 464.952 241.514 467.614 231.629 472.074 222.88 476.571 214.061 482.838 206.767 490.197 201.787 494.515 198.865 499.229 196.706 504.206 195.371 505.406 195.048 506.64 195.761 506.962 196.961 507.284 198.161 506.572 199.396 505.372 199.717 500.88 200.923 496.622 202.873 492.719 205.514 485.987 210.068 480.236 216.78 476.084 224.924 471.896 233.136 469.396 242.443 468.65 252.589 468.563 253.771 467.577 254.674 466.408 254.674Z" fill="#FFFFFF"/><path d="M467.025 273.353C465.918 273.353 464.954 272.536 464.799 271.408 464.48 269.076 464.244 266.712 464.099 264.38 464.022 263.14 464.966 262.072 466.206 261.995 467.444 261.918 468.515 262.862 468.591 264.102 468.729 266.322 468.953 268.574 469.258 270.796 469.427 272.027 468.566 273.162 467.335 273.331 467.231 273.345 467.127 273.353 467.025 273.353Z" fill="#FFFFFF"/><path d="M667.272 243.805C667.027 243.805 666.777 243.764 666.532 243.679 665.359 243.27 664.739 241.987 665.148 240.814 668.692 230.639 673.821 221.779 680.395 214.483 687.02 207.128 694.961 201.705 703.359 198.8 708.287 197.096 713.4 196.23 718.551 196.229L718.551 196.229C719.793 196.229 720.801 197.236 720.801 198.478 720.802 199.721 719.795 200.728 718.552 200.729 713.902 200.73 709.286 201.512 704.829 203.053 697.148 205.71 689.855 210.705 683.739 217.495 677.568 224.345 672.744 232.688 669.397 242.294 669.074 243.223 668.203 243.805 667.272 243.805Z" fill="#FFFFFF"/><path d="M663.042 262.007C662.948 262.007 662.853 262.001 662.757 261.989 661.524 261.833 660.651 260.708 660.807 259.475 661.101 257.144 661.485 254.8 661.949 252.506 662.195 251.288 663.381 250.501 664.602 250.747 665.82 250.994 666.607 252.182 666.36 253.4 665.918 255.584 665.552 257.818 665.271 260.038 665.128 261.176 664.159 262.007 663.042 262.007Z" fill="#FFFFFF"/><path d="M572.884 55.368C572.45 55.368 572.011 55.2427 571.624 54.9802 570.595 54.2827 570.326 52.884 571.023 51.855 581.914 35.7795 598.352 26.1825 614.994 26.1825 616.236 26.1825 617.244 27.1897 617.244 28.4325 617.244 29.6753 616.236 30.6825 614.994 30.6825 599.846 30.6825 584.801 39.5415 574.748 54.3787 574.313 55.0215 573.605 55.368 572.884 55.368Z" fill="#FFFFFF"/><path d="M688.307 118.433C687.677 118.433 687.051 118.17 686.605 117.655 685.792 116.716 685.895 115.295 686.834 114.482 701.513 101.773 719.878 96.7583 735.951 101.065 737.151 101.387 737.863 102.62 737.541 103.82 737.22 105.021 735.986 105.733 734.786 105.412 720.156 101.492 703.33 106.154 689.779 117.884 689.354 118.253 688.83 118.433 688.307 118.433Z" fill="#FFFFFF"/><path d="M463.182 160.938C463.126 160.938 463.07 160.936 463.014 160.932 461.775 160.841 460.845 159.762 460.936 158.523 461.727 147.777 464.388 137.893 468.849 129.144 473.345 120.324 479.612 113.031 486.971 108.051 491.29 105.129 496.003 102.971 500.98 101.635 502.179 101.312 503.414 102.025 503.736 103.225 504.058 104.425 503.346 105.659 502.146 105.981 497.654 107.186 493.397 109.137 489.493 111.778 482.762 116.332 477.009 123.044 472.858 131.187 468.672 139.4 466.17 148.707 465.424 158.853 465.336 160.036 464.349 160.938 463.182 160.938Z" fill="#FFFFFF"/><path d="M463.799 179.617C462.692 179.617 461.727 178.8 461.573 177.672 461.253 175.337 461.017 172.973 460.873 170.645 460.796 169.404 461.739 168.336 462.98 168.259 464.216 168.181 465.288 169.126 465.365 170.366 465.502 172.583 465.726 174.835 466.031 177.06 466.2 178.292 465.339 179.426 464.108 179.595 464.004 179.61 463.901 179.617 463.799 179.617Z" fill="#FFFFFF"/></g></svg>