<svg width="48" height="48" xmlns="http://www.w3.org/2000/svg" xmlns:xlink="http://www.w3.org/1999/xlink" xml:space="preserve" overflow="hidden"><g transform="translate(-616 -336)"><path d="M632 360C636.418 360 640 356.418 640 352 640 347.582 636.418 344 632 344 627.582 344 624 347.582 624 352 624 356.418 627.582 360 632 360ZM650 360C653.314 360 656 357.314 656 354 656 350.686 653.314 348 650 348 646.686 348 644 350.686 644 354 644 357.314 646.686 360 650 360ZM622.75 363C620.679 363 619 364.679 619 366.75L619 368C619 368 619 377 632 377 645 377 645 368 645 368L645 366.75C645 364.679 643.321 363 641.25 363L622.75 363ZM644.674 374.089C646.05 374.647 647.793 375 649.999 375 660.499 375 660.499 367 660.499 367L660.499 366.75C660.499 364.679 658.82 363 656.749 363L645.607 363C646.474 364.007 646.998 365.317 646.998 366.75L646.998 368.005 646.998 368.01 646.998 368.021 646.998 368.045C646.998 368.062 646.997 368.081 646.997 368.102 646.996 368.144 646.994 368.194 646.991 368.251 646.985 368.366 646.975 368.511 646.956 368.683 646.919 369.025 646.849 369.479 646.716 370.007 646.45 371.061 645.921 372.451 644.87 373.838 644.806 373.922 644.741 374.006 644.674 374.089Z" fill="#F2F2F2"/></g></svg>