<svg width="123" height="42" viewBox="0 0 123 42" fill="none" xmlns="http://www.w3.org/2000/svg">
<g clip-path="url(#clip0_33353_13306)">
<path d="M46.8001 15.7991V30.1991H44.3001V18.8991H44.2667L39.8001 30.1991H38.1334L33.5667 18.8991H33.5334V30.1991H31.2334V15.7991H34.8334L38.9667 26.4658H39.0334L43.4001 15.7991H46.8001ZM48.8667 16.8991C48.8667 16.4991 49.0001 16.1658 49.3001 15.8991C49.6001 15.6324 49.9334 15.4991 50.3334 15.4991C50.7667 15.4991 51.1334 15.6324 51.4001 15.8991C51.6667 16.1658 51.8334 16.4991 51.8334 16.8991C51.8334 17.2991 51.7001 17.6324 51.4001 17.8991C51.1001 18.1658 50.7667 18.2991 50.3334 18.2991C49.9001 18.2991 49.5667 18.1658 49.3001 17.8991C49.0334 17.5991 48.8667 17.2658 48.8667 16.8991ZM51.5667 19.8658V30.1991H49.1334V19.8658H51.5667ZM58.9334 28.4324C59.3001 28.4324 59.7001 28.3658 60.1334 28.1658C60.5667 27.9991 60.9667 27.7658 61.3334 27.4991V29.7658C60.9334 29.9991 60.5001 30.1658 60.0001 30.2658C59.5001 30.3658 58.9667 30.4324 58.3667 30.4324C56.8334 30.4324 55.6001 29.9658 54.6667 28.9991C53.7001 28.0324 53.2334 26.7991 53.2334 25.3324C53.2334 23.6658 53.7334 22.2991 54.7001 21.2324C55.6667 20.1658 57.0334 19.6324 58.8334 19.6324C59.3001 19.6324 59.7667 19.6991 60.2001 19.7991C60.6667 19.8991 61.0334 20.0658 61.3001 20.1991V22.5324C60.9334 22.2658 60.5334 22.0324 60.1667 21.8991C59.7667 21.7658 59.3667 21.6658 58.9667 21.6658C58.0001 21.6658 57.2334 21.9658 56.6334 22.5991C56.0334 23.2324 55.7667 24.0658 55.7667 25.1324C55.7667 26.1658 56.0667 26.9991 56.6334 27.5658C57.2001 28.1324 57.9667 28.4324 58.9334 28.4324ZM68.2334 19.6991C68.4334 19.6991 68.6001 19.6991 68.7667 19.7324C68.9334 19.7658 69.0667 19.7991 69.1667 19.8324V22.2991C69.0334 22.1991 68.8667 22.0991 68.6001 22.0324C68.3334 21.9658 68.0667 21.8991 67.7001 21.8991C67.1001 21.8991 66.6001 22.1658 66.2001 22.6658C65.8001 23.1658 65.5667 23.9324 65.5667 24.9991V30.1991H63.1334V19.8658H65.5667V21.4991H65.6001C65.8334 20.9324 66.1667 20.4991 66.6001 20.1658C67.0667 19.8658 67.6001 19.6991 68.2334 19.6991ZM69.3001 25.1991C69.3001 23.4991 69.8001 22.1324 70.7334 21.1324C71.7001 20.1324 73.0334 19.6324 74.7334 19.6324C76.3334 19.6324 77.6001 20.0991 78.5001 21.0658C79.4001 22.0324 79.8667 23.3324 79.8667 24.9658C79.8667 26.6324 79.3667 27.9658 78.4334 28.9658C77.4667 29.9658 76.1667 30.4658 74.5001 30.4658C72.9001 30.4658 71.6334 29.9991 70.7001 29.0658C69.7667 28.0991 69.3001 26.7991 69.3001 25.1991ZM71.8334 25.0991C71.8334 26.1658 72.0667 26.9991 72.5667 27.5658C73.0667 28.1324 73.7667 28.4324 74.6667 28.4324C75.5334 28.4324 76.2334 28.1658 76.7001 27.5658C77.1667 26.9991 77.4001 26.1658 77.4001 25.0324C77.4001 23.9324 77.1667 23.0991 76.7001 22.4991C76.2334 21.9324 75.5334 21.6324 74.7001 21.6324C73.8001 21.6324 73.1334 21.9324 72.6334 22.5324C72.0667 23.1658 71.8334 23.9991 71.8334 25.0991ZM83.5001 22.5991C83.5001 22.9324 83.6001 23.2324 83.8334 23.4324C84.0667 23.6324 84.5334 23.8658 85.3001 24.1658C86.2667 24.5658 86.9667 24.9991 87.3334 25.4658C87.7334 25.9658 87.9334 26.5324 87.9334 27.2324C87.9334 28.1991 87.5667 28.9658 86.8001 29.5658C86.0667 30.1658 85.0334 30.4324 83.7667 30.4324C83.3334 30.4324 82.8667 30.3658 82.3334 30.2658C81.8001 30.1658 81.3667 30.0324 81.0001 29.8658V27.4658C81.4334 27.7658 81.9334 28.0324 82.4334 28.1991C82.9334 28.3658 83.4001 28.4658 83.8334 28.4658C84.3667 28.4658 84.8001 28.3991 85.0334 28.2324C85.3001 28.0658 85.4334 27.8324 85.4334 27.4658C85.4334 27.1324 85.3001 26.8658 85.0334 26.5991C84.7667 26.3658 84.2334 26.0991 83.5001 25.7991C82.6001 25.4324 81.9667 24.9991 81.6001 24.5324C81.2334 24.0658 81.0334 23.4658 81.0334 22.7324C81.0334 21.7991 81.4001 21.0324 82.1334 20.4324C82.8667 19.8324 83.8334 19.5324 85.0001 19.5324C85.3667 19.5324 85.7667 19.5658 86.2001 19.6658C86.6334 19.7658 87.0334 19.8658 87.3334 19.9658V22.3324C87.0001 22.1324 86.6334 21.9324 86.2001 21.7658C85.7667 21.5991 85.3334 21.5324 84.9334 21.5324C84.4667 21.5324 84.1001 21.6324 83.8667 21.7991C83.6334 22.0324 83.5001 22.2658 83.5001 22.5991ZM88.9667 25.1991C88.9667 23.4991 89.4667 22.1324 90.4001 21.1324C91.3667 20.1324 92.7001 19.6324 94.4001 19.6324C96.0001 19.6324 97.2667 20.0991 98.1667 21.0658C99.0667 22.0324 99.5334 23.3324 99.5334 24.9658C99.5334 26.6324 99.0334 27.9658 98.1001 28.9658C97.1334 29.9658 95.8334 30.4658 94.1667 30.4658C92.5667 30.4658 91.3001 29.9991 90.3667 29.0658C89.4667 28.0991 88.9667 26.7991 88.9667 25.1991ZM91.5001 25.0991C91.5001 26.1658 91.7334 26.9991 92.2334 27.5658C92.7334 28.1324 93.4334 28.4324 94.3334 28.4324C95.2001 28.4324 95.9001 28.1658 96.3667 27.5658C96.8334 26.9991 97.0667 26.1658 97.0667 25.0324C97.0667 23.9324 96.8334 23.0991 96.3667 22.4991C95.9001 21.9324 95.2001 21.6324 94.3667 21.6324C93.4667 21.6324 92.8001 21.9324 92.3001 22.5324C91.7667 23.1658 91.5001 23.9991 91.5001 25.0991ZM107.633 21.8658H104V30.1991H101.533V21.8658H99.8001V19.8658H101.533V18.4324C101.533 17.3658 101.9 16.4658 102.6 15.7658C103.3 15.0658 104.2 14.7324 105.3 14.7324C105.6 14.7324 105.867 14.7658 106.1 14.7658C106.333 14.7658 106.533 14.8324 106.7 14.8991V16.9991C106.633 16.9658 106.467 16.8991 106.267 16.8324C106.067 16.7658 105.833 16.7324 105.567 16.7324C105.067 16.7324 104.667 16.8991 104.4 17.1991C104.133 17.4991 104 17.9991 104 18.5991V19.8324H107.633V17.4991L110.067 16.7658V19.8324H112.533V21.8324H110.067V26.6658C110.067 27.2991 110.2 27.7324 110.4 27.9991C110.633 28.2658 111 28.3991 111.5 28.3991C111.633 28.3991 111.8 28.3658 112 28.2991C112.2 28.2324 112.367 28.1658 112.5 28.0658V30.0658C112.333 30.1658 112.1 30.2324 111.733 30.2991C111.367 30.3658 111.033 30.3991 110.667 30.3991C109.633 30.3991 108.867 30.1324 108.367 29.5991C107.867 29.0658 107.6 28.2324 107.6 27.1324L107.633 21.8658Z" fill="#737373"/>
<path d="M11.4 11H0V22.4H11.4V11Z" fill="#F25022"/>
<path d="M24.0001 11H12.6001V22.4H24.0001V11Z" fill="#7FBA00"/>
<path d="M11.4 23.5996H0V34.9996H11.4V23.5996Z" fill="#00A4EF"/>
<path d="M24.0001 23.5996H12.6001V34.9996H24.0001V23.5996Z" fill="#FFB900"/>
</g>
<defs>
<clipPath id="clip0_33353_13306">
<rect width="112.533" height="24" fill="white" transform="translate(0 11)"/>
</clipPath>
</defs>
</svg>
