<svg width="143" height="53" viewBox="0 0 143 53" fill="none" xmlns="http://www.w3.org/2000/svg">
<g clip-path="url(#clip0_36631_65550)">
<path d="M61.9902 18.819V33.2776H59.4801V21.9317H59.4466L54.9618 33.2776H53.2883L48.7031 21.9317H48.6696V33.2776H46.3603V18.819H49.9749L54.1251 29.5291H54.192L58.5764 18.819H61.9902ZM64.0653 19.9235C64.0653 19.5219 64.1992 19.1872 64.5004 18.9195C64.8016 18.6517 65.1363 18.5178 65.5379 18.5178C65.973 18.5178 66.3412 18.6517 66.6089 18.9195C66.8767 19.1872 67.044 19.5219 67.044 19.9235C67.044 20.3251 66.9102 20.6598 66.6089 20.9276C66.3077 21.1953 65.973 21.3292 65.5379 21.3292C65.1028 21.3292 64.7681 21.1953 64.5004 20.9276C64.2326 20.6264 64.0653 20.2917 64.0653 19.9235ZM66.7763 22.9022V33.2776H64.3331V22.9022H66.7763ZM74.1729 31.5037C74.5411 31.5037 74.9427 31.4368 75.3778 31.236C75.8129 31.0686 76.2145 30.8344 76.5827 30.5666V32.8425C76.181 33.0768 75.7459 33.2441 75.2439 33.3445C74.7419 33.4449 74.2064 33.5119 73.6039 33.5119C72.0644 33.5119 70.826 33.0433 69.8889 32.0727C68.9183 31.1021 68.4497 29.8638 68.4497 28.3911C68.4497 26.7177 68.9518 25.3455 69.9224 24.2745C70.893 23.2035 72.2652 22.668 74.0725 22.668C74.5411 22.668 75.0096 22.7349 75.4447 22.8353C75.9133 22.9357 76.2814 23.1031 76.5492 23.2369V25.5798C76.181 25.312 75.7794 25.0777 75.4112 24.9438C75.0096 24.81 74.608 24.7096 74.2064 24.7096C73.2358 24.7096 72.466 25.0108 71.8635 25.6467C71.2611 26.2826 70.9934 27.1193 70.9934 28.1903C70.9934 29.2279 71.2946 30.0646 71.8635 30.6335C72.4325 31.2025 73.2023 31.5037 74.1729 31.5037ZM83.5107 22.7349C83.7115 22.7349 83.8789 22.7349 84.0462 22.7684C84.2135 22.8018 84.3474 22.8353 84.4478 22.8688V25.3455C84.314 25.2451 84.1466 25.1447 83.8789 25.0777C83.6111 25.0108 83.3434 24.9438 82.9752 24.9438C82.3728 24.9438 81.8707 25.2116 81.4691 25.7136C81.0675 26.2157 80.8332 26.9854 80.8332 28.0564V33.2776H78.39V22.9022H80.8332V24.5422H80.8667C81.1009 23.9733 81.4356 23.5382 81.8707 23.2035C82.3393 22.9022 82.8748 22.7349 83.5107 22.7349ZM84.5817 28.2573C84.5817 26.5504 85.0837 25.1781 86.0209 24.1741C86.9915 23.17 88.3302 22.668 90.0371 22.668C91.6436 22.668 92.9154 23.1365 93.8191 24.1071C94.7228 25.0777 95.1913 26.383 95.1913 28.023C95.1913 29.6964 94.6893 31.0352 93.7522 32.0392C92.7816 33.0433 91.4763 33.5453 89.8028 33.5453C88.1963 33.5453 86.9245 33.0768 85.9874 32.1396C85.0503 31.1691 84.5817 29.8638 84.5817 28.2573ZM87.1253 28.1569C87.1253 29.2279 87.3596 30.0646 87.8616 30.6335C88.3637 31.2025 89.0665 31.5037 89.9702 31.5037C90.8404 31.5037 91.5432 31.236 92.0118 30.6335C92.4804 30.0646 92.7146 29.2279 92.7146 28.0899C92.7146 26.9854 92.4804 26.1487 92.0118 25.5463C91.5432 24.9773 90.8404 24.6761 90.0037 24.6761C89.1 24.6761 88.4306 24.9773 87.9286 25.5798C87.3596 26.2157 87.1253 27.0524 87.1253 28.1569ZM98.8394 25.6467C98.8394 25.9814 98.9398 26.2826 99.1741 26.4834C99.4084 26.6842 99.877 26.9185 100.647 27.2197C101.617 27.6214 102.32 28.0564 102.688 28.525C103.09 29.027 103.291 29.596 103.291 30.2989C103.291 31.2695 102.923 32.0392 102.153 32.6417C101.417 33.2441 100.379 33.5119 99.1072 33.5119C98.6721 33.5119 98.2035 33.4449 97.668 33.3445C97.1325 33.2441 96.6974 33.1102 96.3293 32.9429V30.5331C96.7644 30.8344 97.2664 31.1021 97.7684 31.2695C98.2705 31.4368 98.739 31.5372 99.1741 31.5372C99.7096 31.5372 100.145 31.4703 100.379 31.3029C100.647 31.1356 100.781 30.9013 100.781 30.5331C100.781 30.1985 100.647 29.9307 100.379 29.663C100.111 29.4287 99.5757 29.1609 98.8394 28.8597C97.9358 28.4915 97.2999 28.0564 96.9317 27.5879C96.5635 27.1193 96.3627 26.5169 96.3627 25.7806C96.3627 24.8434 96.7309 24.0737 97.4672 23.4712C98.2035 22.8688 99.1741 22.5676 100.346 22.5676C100.714 22.5676 101.115 22.601 101.55 22.7014C101.985 22.8018 102.387 22.9022 102.688 23.0027V25.3789C102.354 25.1781 101.985 24.9773 101.55 24.81C101.115 24.6426 100.68 24.5757 100.279 24.5757C99.81 24.5757 99.4419 24.6761 99.2076 24.8434C98.9733 25.0777 98.8394 25.312 98.8394 25.6467ZM104.328 28.2573C104.328 26.5504 104.83 25.1781 105.767 24.1741C106.738 23.17 108.077 22.668 109.784 22.668C111.39 22.668 112.662 23.1365 113.566 24.1071C114.469 25.0777 114.938 26.383 114.938 28.023C114.938 29.6964 114.436 31.0352 113.499 32.0392C112.528 33.0433 111.223 33.5453 109.549 33.5453C107.943 33.5453 106.671 33.0768 105.734 32.1396C104.83 31.1691 104.328 29.8638 104.328 28.2573ZM106.872 28.1569C106.872 29.2279 107.106 30.0646 107.608 30.6335C108.11 31.2025 108.813 31.5037 109.717 31.5037C110.587 31.5037 111.29 31.236 111.758 30.6335C112.227 30.0646 112.461 29.2279 112.461 28.0899C112.461 26.9854 112.227 26.1487 111.758 25.5463C111.29 24.9773 110.587 24.6761 109.75 24.6761C108.847 24.6761 108.177 24.9773 107.675 25.5798C107.14 26.2157 106.872 27.0524 106.872 28.1569ZM123.071 24.9104H119.423V33.2776H116.946V24.9104H115.206V22.9022H116.946V21.4631C116.946 20.3921 117.314 19.4884 118.017 18.7856C118.72 18.0827 119.624 17.748 120.728 17.748C121.029 17.748 121.297 17.7815 121.531 17.7815C121.766 17.7815 121.966 17.8485 122.134 17.9154V20.0239C122.067 19.9905 121.899 19.9235 121.699 19.8566C121.498 19.7896 121.264 19.7562 120.996 19.7562C120.494 19.7562 120.092 19.9235 119.824 20.2247C119.557 20.526 119.423 21.028 119.423 21.6304V22.8688H123.071V20.526L125.514 19.7896V22.8688H127.991V24.8769H125.514V29.7299C125.514 30.3658 125.648 30.8009 125.849 31.0686C126.083 31.3364 126.451 31.4703 126.953 31.4703C127.087 31.4703 127.254 31.4368 127.455 31.3699C127.656 31.3029 127.823 31.236 127.957 31.1356V33.1437C127.79 33.2441 127.556 33.3111 127.188 33.378C126.819 33.4449 126.485 33.4784 126.117 33.4784C125.079 33.4784 124.309 33.2106 123.807 32.6751C123.305 32.1396 123.037 31.3029 123.037 30.1985L123.071 24.9104Z" fill="white"/>
<path d="M26.4463 14H15V25.4463H26.4463V14Z" fill="#F25022"/>
<path d="M39.0976 14H27.6512V25.4463H39.0976V14Z" fill="#7FBA00"/>
<path d="M26.4463 26.6514H15V38.0977H26.4463V26.6514Z" fill="#00A4EF"/>
<path d="M39.0976 26.6514H27.6512V38.0977H39.0976V26.6514Z" fill="#FFB900"/>
</g>
<defs>
<clipPath id="clip0_36631_65550">
<rect width="112.991" height="24.0976" fill="white" transform="translate(15 14)"/>
</clipPath>
</defs>
</svg>
