<svg width="48" height="48" xmlns="http://www.w3.org/2000/svg" xmlns:xlink="http://www.w3.org/1999/xlink" xml:space="preserve" overflow="hidden"><g transform="translate(-830 -439)"><path d="M848 450C848 446.686 850.686 444 854 444 857.314 444 860 446.686 860 450 860 453.314 857.314 456 854 456 850.686 456 848 453.314 848 450ZM867 446C864.239 446 862 448.239 862 451 862 453.761 864.239 456 867 456 869.761 456 872 453.761 872 451 872 448.239 869.761 446 867 446ZM841 446C838.239 446 836 448.239 836 451 836 453.761 838.239 456 841 456 843.761 456 846 453.761 846 451 846 448.239 843.761 446 841 446ZM849.25 458C846.903 458 845 459.903 845 462.25L845 473C845 477.971 849.029 482 854 482 858.971 482 863 477.971 863 473L863 462.25C863 459.903 861.097 458 858.75 458L849.25 458ZM843 462.25C843 460.649 843.602 459.189 844.591 458.083 844.32 458.029 844.038 458 843.75 458L838.25 458C835.903 458 834 459.903 834 462.25L834 472C834 475.866 837.134 479 841 479 842.19 479 843.311 478.703 844.293 478.179 843.468 476.635 843 474.872 843 473L843 462.25ZM865 473C865 474.872 864.532 476.635 863.707 478.179 864.689 478.703 865.81 479 867 479 870.866 479 874 475.866 874 472L874 462.25C874 459.903 872.097 458 869.75 458L864.25 458C863.962 458 863.68 458.029 863.409 458.083 864.398 459.189 865 460.649 865 462.25L865 473Z" fill="#F2F2F2"/></g></svg>