<svg width="48" height="48" xmlns="http://www.w3.org/2000/svg" xmlns:xlink="http://www.w3.org/1999/xlink" xml:space="preserve" overflow="hidden"><g transform="translate(-830 -272)"><path d="M854 276C848.477 276 844 280.477 844 286 844 291.523 848.477 296 854 296 859.523 296 864 291.523 864 286 864 280.477 859.523 276 854 276ZM842.25 300C839.903 300 838 301.901 838 304.249L838 305C838 308.755 839.942 311.567 842.92 313.38 845.849 315.163 849.786 316 854 316 858.214 316 862.151 315.163 865.08 313.38 868.058 311.567 870 308.755 870 305L870 304.249C870 301.901 868.097 300 865.75 300L842.25 300Z" fill="#F2F2F2"/></g></svg>