<svg width="482" height="475" xmlns="http://www.w3.org/2000/svg" xmlns:xlink="http://www.w3.org/1999/xlink" xml:space="preserve" overflow="hidden"><defs><clipPath id="clip0"><rect x="1789" y="-14" width="482" height="475"/></clipPath><linearGradient x1="1859" y1="421.5" x2="2122" y2="421.5" gradientUnits="userSpaceOnUse" spreadMethod="reflect" id="fill1"><stop offset="0" stop-color="#7350AB"/><stop offset="0.87" stop-color="#6741A4"/><stop offset="0.88" stop-color="#6741A4"/><stop offset="1" stop-color="#6741A4"/></linearGradient><linearGradient x1="1765.96" y1="336.748" x2="2216.04" y2="138.253" gradientUnits="userSpaceOnUse" spreadMethod="reflect" id="fill2"><stop offset="0" stop-color="#8152BD"/><stop offset="0.59" stop-color="#9768D2"/><stop offset="1" stop-color="#9768D2"/></linearGradient><linearGradient x1="1911.19" y1="305.5" x2="2078.81" y2="305.5" gradientUnits="userSpaceOnUse" spreadMethod="reflect" id="stroke3"><stop offset="0" stop-color="#E8BAFF"/><stop offset="0.95" stop-color="#F1D0FF"/><stop offset="1" stop-color="#F1D0FF"/></linearGradient><linearGradient x1="2006" y1="113.5" x2="2271" y2="113.5" gradientUnits="userSpaceOnUse" spreadMethod="reflect" id="fill4"><stop offset="0" stop-color="#C191EB"/><stop offset="0.82" stop-color="#B685E4"/><stop offset="1" stop-color="#B685E4"/></linearGradient><linearGradient x1="2081" y1="79.5" x2="2271" y2="79.5" gradientUnits="userSpaceOnUse" spreadMethod="reflect" id="fill5"><stop offset="0" stop-color="#E7B8FF"/><stop offset="0.82" stop-color="#F1D0FF"/><stop offset="1" stop-color="#F1D0FF"/></linearGradient></defs><g clip-path="url(#clip0)" transform="translate(-1789 14)"><path d="M2122 383.412 2009.31 382.802 1903.96 457.434C1895.13 463.674 1883 461.513 1876.83 452.604 1874.5 449.257 1873.27 445.3 1873.31 441.221L1873.62 382.087 1859 382" fill="url(#fill1)" fill-rule="evenodd"/><path d="M1854.14 387.536C1817.97 387.346 1788.81 357.939 1789 321.85L1789.93 150.981C1790.12 114.892 1819.6 85.8116 1855.78 86.001L2127.86 87.4642C2164.03 87.6536 2193.19 117.062 2193 153.15L2192.07 324.019C2191.88 360.108 2162.4 389.189 2126.22 388.999L1854.14 387.536Z" fill="url(#fill2)" fill-rule="evenodd"/><path d="M1921.5 291.5C1949.55 319.501 2041.37 319.501 2068.5 291.5" stroke="url(#stroke3)" stroke-width="20.625" stroke-linecap="round" stroke-linejoin="round" stroke-miterlimit="10" fill="none" fill-rule="evenodd"/><path d="M2163.31 1.49223 2182.73 40.5982C2186.81 48.8366 2194.69 54.5241 2203.78 55.8165L2247 61.9867C2269.91 65.2613 2279.11 93.3888 2262.59 109.59L2231.4 140.147C2224.84 146.576 2221.86 155.831 2223.44 164.88L2230.92 207.898C2234.88 230.7 2210.98 248.159 2190.48 237.438L2151.8 217.222C2143.65 212.965 2133.93 212.982 2125.82 217.291L2087.24 237.697C2066.79 248.52 2042.8 231.182 2046.66 208.363L2053.93 165.31C2055.47 156.245 2052.43 147.007 2045.83 140.613L2014.51 110.21C1997.9 94.0955 2006.98 65.9163 2029.86 62.5382L2073.04 56.144C2082.14 54.7996 2089.98 49.0605 2094.03 40.8221L2113.24 1.62981C2123.42-19.1553 2153.02-19.2243 2163.31 1.5092Z" fill="url(#fill4)" fill-rule="evenodd"/><path d="M2246.9 62.0967 2203.54 55.9189C2194.42 54.6249 2186.52 48.9132 2182.42 40.6818L2162.94 1.5281C2152.62-19.2306 2122.92-19.1616 2112.7 1.64886L2093.43 40.8889C2090.73 46.3765 2086.32 50.7249 2081 53.434L2095.04 67.0319C2102.02 73.7787 2105.22 83.5286 2103.59 93.1054L2095.9 138.541C2091.82 162.63 2117.18 180.938 2138.82 169.515L2179.64 147.962C2188.23 143.424 2198.5 143.407 2207.12 147.893L2223.2 156.28C2224.08 150.309 2226.83 144.666 2231.27 140.335L2262.56 109.74C2279.14 93.5197 2269.91 65.3579 2246.92 62.0794Z" fill="url(#fill5)" fill-rule="evenodd"/></g></svg>