<svg width="895" height="895" xmlns="http://www.w3.org/2000/svg" xmlns:xlink="http://www.w3.org/1999/xlink" xml:space="preserve" overflow="hidden"><defs><filter id="fx0" x="-10%" y="-10%" width="120%" height="120%" filterUnits="userSpaceOnUse" primitiveUnits="userSpaceOnUse"><feComponentTransfer color-interpolation-filters="sRGB"><feFuncR type="discrete" tableValues="0 0"/><feFuncG type="discrete" tableValues="0 0"/><feFuncB type="discrete" tableValues="0 0"/><feFuncA type="linear" slope="0.4" intercept="0"/></feComponentTransfer><feGaussianBlur stdDeviation="6.11111 6.11111"/></filter><filter id="fx1" x="-10%" y="-10%" width="120%" height="120%" filterUnits="userSpaceOnUse" primitiveUnits="userSpaceOnUse"><feComponentTransfer color-interpolation-filters="sRGB"><feFuncR type="discrete" tableValues="0 0"/><feFuncG type="discrete" tableValues="0 0"/><feFuncB type="discrete" tableValues="0 0"/><feFuncA type="linear" slope="0.4" intercept="0"/></feComponentTransfer><feGaussianBlur stdDeviation="6.11111 6.11111"/></filter><filter id="fx2" x="-10%" y="-10%" width="120%" height="120%" filterUnits="userSpaceOnUse" primitiveUnits="userSpaceOnUse"><feComponentTransfer color-interpolation-filters="sRGB"><feFuncR type="discrete" tableValues="0 0"/><feFuncG type="discrete" tableValues="0 0"/><feFuncB type="discrete" tableValues="0 0"/><feFuncA type="linear" slope="0.4" intercept="0"/></feComponentTransfer><feGaussianBlur stdDeviation="6.11111 6.11111"/></filter><filter id="fx3" x="-10%" y="-10%" width="120%" height="120%" filterUnits="userSpaceOnUse" primitiveUnits="userSpaceOnUse"><feComponentTransfer color-interpolation-filters="sRGB"><feFuncR type="discrete" tableValues="0 0"/><feFuncG type="discrete" tableValues="0 0"/><feFuncB type="discrete" tableValues="0 0"/><feFuncA type="linear" slope="0.4" intercept="0"/></feComponentTransfer><feGaussianBlur stdDeviation="6.11111 6.11111"/></filter><clipPath id="clip4"><rect x="2417" y="-500" width="895" height="895"/></clipPath><clipPath id="clip5"><path d="M3033.17-119.871C3027.54-119.208 3021.97-116.972 3016.74-113.189 2997.43-99.2746 2984.45-65.1569 2980.14-40.0329L2962.43-48.1301C2945.61-55.8183 2928.24-55.9711 2913.49-48.5913 2897.54-40.5759 2885.81-24.0928 2881.34-3.32744 2879.78 5.22726 2878.68 13.8666 2878.05 22.5319 2877.58 27.4205 2877.15 32.0792 2876.7 35.3068 2875.3 45.1258 2874.35 65.4954 2877.25 81.1101 2881.81 105.207 2892.35 122.252 2909.43 133.202 2921.24 140.331 2933.44 146.786 2945.99 152.541L2945.96 152.551C2956.3 157.275 2977.07 165.458 2987.14 168.769 3006.4 175.099 3025.95 167.396 3033.77 150.29L3081.23 46.4814C3082.81 43.0189 3082.8 39.0369 3081.21 35.5777 3060.74-8.89011 3065.25-40.4441 3068.55-63.49 3071.52-84.3124 3074.56-105.875 3049.97-117.117 3044.49-119.624 3038.8-120.534 3033.17-119.871ZM2417-500 3312-500 3312 395 2417 395Z" fill-rule="evenodd" clip-rule="evenodd"/></clipPath><clipPath id="clip6"><rect x="-3" y="-3" width="269" height="351"/></clipPath><clipPath id="clip7"><rect x="0" y="0" width="262" height="346"/></clipPath><clipPath id="clip8"><path d="M3123.76 30.8175C3104.06 31.3808 3084.34 44.7164 3074.47 66.2614L3041.47 138.458C3028.37 167.208 3037.76 199.64 3062.47 210.979L3069.68 214.272C3094.42 225.542 3125.11 211.435 3138.28 182.717L3171.29 110.52C3184.39 81.7699 3174.99 49.3132 3150.27 37.9745L3143.07 34.6807C3136.88 31.8611 3130.32 30.6297 3123.76 30.8175ZM2417-500 3312-500 3312 395 2417 395Z" fill-rule="evenodd" clip-rule="evenodd"/></clipPath></defs><g clip-path="url(#clip4)" transform="translate(-2417 500)"><path d="M2417-52.5001C2417-299.648 2617.35-500 2864.5-500 3111.65-500 3312-299.648 3312-52.5001 3312 194.647 3111.65 395 2864.5 395 2617.35 395 2417 194.647 2417-52.5001Z" fill="#E8E8E8" fill-rule="evenodd"/><g filter="url(#fx0)" transform="translate(2551 -312)"><g><path d="M338.476 437.026C322.865 441.929 291.725 449.908 276.75 452.839 248.087 458.439 221.53 443.938 213.414 418.098L164.163 261.288C162.52 256.057 163.245 250.369 166.148 245.712 203.333 185.831 202.532 139.94 201.935 106.421 201.413 76.137 200.927 44.7845 238.072 33.1179L238.072 33.1179C254.644 27.9129 271.249 31.989 284.85 44.6709 309.958 68.0044 322.401 119.073 324.073 155.743L350.828 147.34C376.232 139.361 401.082 142.248 420.833 155.428 442.191 169.733 456.012 195.382 458.676 225.851 459.377 238.353 459.407 250.894 458.765 263.389 458.559 270.458 458.334 277.19 458.409 281.884 458.642 296.163 456.364 325.438 449.425 347.23 438.608 380.846 420.495 403.317 394.143 415.911 375.989 423.986 357.396 431.026 338.442 437.008Z" stroke="#6C47A7" stroke-width="21.6525" stroke-linecap="round" stroke-linejoin="round" stroke-miterlimit="10" fill="#6A47A6" fill-rule="evenodd"/><path d="M161.557 499.682 150.673 503.1C113.304 514.78 71.9745 489.137 58.2899 445.748L24.0365 336.689C10.4558 293.268 29.6932 248.573 67.03 236.789L77.9139 233.37C115.309 221.682 156.621 247.36 170.279 290.757L204.533 399.816C218.114 443.238 198.894 487.898 161.557 499.682Z" fill="#9768D2" fill-rule="evenodd"/></g></g><path d="M2879.75 115.303C2864.14 120.206 2833 128.186 2818.03 131.117 2789.36 136.717 2762.81 122.215 2754.69 96.3749L2705.44-60.4352C2703.8-65.6656 2704.52-71.3537 2707.43-76.0109 2744.61-135.891 2743.81-181.783 2743.21-215.302 2742.69-245.586 2742.2-276.938 2779.35-288.605L2779.35-288.605C2795.92-293.81 2812.53-289.734 2826.13-277.052 2851.23-253.718 2863.68-202.649 2865.35-165.98L2892.11-174.383C2917.51-182.362 2942.36-179.475 2962.11-166.294 2983.47-151.99 2997.29-126.341 2999.95-95.8719 3000.65-83.3698 3000.68-70.8286 3000.04-58.3335 2999.84-51.2644 2999.61-44.5325 2999.69-39.8389 2999.92-25.5601 2997.64 3.71559 2990.7 25.5076 2979.89 59.1236 2961.77 81.5944 2935.42 94.1882 2917.27 102.263 2898.67 109.303 2879.72 115.285Z" stroke="#6C47A7" stroke-width="21.6525" stroke-linecap="round" stroke-linejoin="round" stroke-miterlimit="10" fill="#6A47A6" fill-rule="evenodd"/><g filter="url(#fx1)" transform="translate(2551 -101)"><g><path d="M161.557 288.682 150.673 292.1C113.304 303.78 71.9745 278.137 58.2899 234.748L24.0365 125.689C10.4558 82.2677 29.6932 37.5728 67.03 25.7889L77.9139 22.3705C115.309 10.6825 156.621 36.3601 170.279 79.757L204.533 188.816C218.114 232.238 198.894 276.898 161.557 288.682Z" fill="#9768D2" fill-rule="evenodd"/></g></g><path d="M2702.83 177.959 2691.95 181.378C2654.58 193.058 2613.25 167.414 2599.57 124.026L2565.31 14.9664C2551.73-28.455 2570.97-73.1499 2608.31-84.9338L2619.19-88.3522C2656.59-100.04 2697.9-74.3626 2711.56-30.9657L2745.81 78.0935C2759.39 121.515 2740.17 166.176 2702.83 177.959Z" fill="#9768D2" fill-rule="evenodd"/><g clip-path="url(#clip5)"><g clip-path="url(#clip6)" filter="url(#fx2)" transform="translate(2858 -138)"><g clip-path="url(#clip7)"><path d="M78.9204 288.498C67.557 288.498 45.2647 287.304 34.7333 286.13 14.5779 283.876 0 268.742 0 249.933L0 135.791C0 131.984 1.66406 128.366 4.55645 125.885 41.6533 93.95 50.672 63.378 57.2523 41.0463 63.2078 20.8738 69.4095 0 96.4478 0L96.4478 0C108.511 0 118.664 6.15598 125.036 17.3881 136.815 38.0723 134.433 74.497 127.91 99.1398L147.385 99.1398C165.876 99.1398 181.74 106.224 192.082 119.066 203.256 132.988 207.076 152.858 202.5 173.599 200.363 182.028 197.773 190.343 194.748 198.488 193.141 203.128 191.59 207.542 190.664 210.667 187.847 220.176 180.246 239.099 171.113 252.092 156.952 272.114 140.275 283.232 120.196 286.092 106.488 287.665 92.704 288.46 78.9016 288.479Z" stroke="#BA8AE7" stroke-width="14.8958" stroke-linecap="round" stroke-linejoin="round" stroke-miterlimit="10" fill="#B786E5" fill-rule="evenodd" transform="matrix(-0.90947 -0.41577 -0.41577 0.90947 289.411 70.7061)"/></g></g></g><path d="M78.9204 288.498C67.557 288.498 45.2647 287.304 34.7333 286.13 14.5779 283.876 0 268.742 0 249.933L0 135.791C0 131.984 1.66406 128.366 4.55645 125.885 41.6533 93.95 50.672 63.378 57.2523 41.0463 63.2078 20.8738 69.4095 0 96.4478 0L96.4478 0C108.511 0 118.664 6.15598 125.036 17.3881 136.815 38.0723 134.433 74.497 127.91 99.1398L147.385 99.1398C165.876 99.1398 181.74 106.224 192.082 119.066 203.256 132.988 207.076 152.858 202.5 173.599 200.363 182.028 197.773 190.343 194.748 198.488 193.141 203.128 191.59 207.542 190.664 210.667 187.847 220.176 180.246 239.099 171.113 252.092 156.952 272.114 140.275 283.232 120.196 286.092 106.488 287.665 92.704 288.46 78.9016 288.479Z" stroke="#BA8AE7" stroke-width="14.8958" stroke-linecap="round" stroke-linejoin="round" stroke-miterlimit="10" fill="#B786E5" fill-rule="evenodd" transform="matrix(-0.90947 -0.41577 -0.41577 0.90947 3137.69 -77.0166)"/><g clip-path="url(#clip8)"><g filter="url(#fx3)" transform="translate(3018 13)"><g><path d="M57.1951 193.847 49.2729 193.847C22.0838 193.809 0.0376896 168.219 0 136.625L0 57.2414C0.0376896 25.6466 22.0838 0.0376896 49.2729 0L57.1951 0C84.4036 0.0376896 106.431 25.6466 106.45 57.2414L106.45 136.625C106.411 168.219 84.3842 193.809 57.1951 193.847Z" stroke="#EEC9FF" stroke-width="14.8958" stroke-linecap="round" stroke-linejoin="round" stroke-miterlimit="10" fill="#F0CCFF" fill-rule="evenodd" transform="matrix(-0.90947 -0.41577 -0.41577 0.90947 186.809 55.1834)"/></g></g></g><path d="M57.1951 193.847 49.2729 193.847C22.0838 193.809 0.0376896 168.219 0 136.625L0 57.2414C0.0376896 25.6466 22.0838 0.0376896 49.2729 0L57.1951 0C84.4036 0.0376896 106.431 25.6466 106.45 57.2414L106.45 136.625C106.411 168.219 84.3842 193.809 57.1951 193.847Z" stroke="#EEC9FF" stroke-width="14.8958" stroke-linecap="round" stroke-linejoin="round" stroke-miterlimit="10" fill="#F0CCFF" fill-rule="evenodd" transform="matrix(-0.90947 -0.41577 -0.41577 0.90947 3195.09 58.4607)"/></g></svg>