<svg width="610" height="610" xmlns="http://www.w3.org/2000/svg" xmlns:xlink="http://www.w3.org/1999/xlink" xml:space="preserve" overflow="hidden"><g transform="translate(-234 -74)"><g><g><g><g><path d="M431.333 271.333 361.667 271.333 361.667 227 431.333 227 431.333 271.333ZM526.333 227 526.333 271.333 456.667 271.333 456.667 227 526.333 227ZM621.333 227 621.333 271.333 551.667 271.333 551.667 227 621.333 227ZM716.333 227 716.333 271.333 646.667 271.333 646.667 227 716.333 227ZM716.333 341 646.667 341 646.667 296.667 716.333 296.667 716.333 341ZM716.333 394.833 646.667 401.167 646.667 366.333 716.333 366.333 716.333 394.833ZM431.333 366.333 431.333 420.167 361.667 426.5 361.667 366.333 431.333 366.333ZM431.333 341 361.667 341 361.667 296.667 431.333 296.667 431.333 341ZM526.333 341 456.667 341 456.667 296.667 526.333 296.667 526.333 341ZM551.667 341 551.667 296.667 621.333 296.667 621.333 341 551.667 341ZM526.333 411.933 456.667 418.267 456.667 366.333 526.333 366.333 526.333 411.933ZM551.667 366.333 621.333 366.333 621.333 403.067 551.667 409.4 551.667 366.333ZM754.333 429.667 754.333 189 361.667 189 361.667 182.667C361.667 151 336.333 125.667 304.667 125.667 293.9 125.667 285.667 133.9 285.667 144.667 285.667 155.433 293.9 163.667 304.667 163.667 315.433 163.667 323.667 171.9 323.667 182.667L323.667 499.333C323.667 531 349 556.333 380.667 556.333L399.667 556.333 678.333 556.333 735.333 556.333C746.1 556.333 754.333 548.1 754.333 537.333 754.333 526.567 746.1 518.333 735.333 518.333L380.667 518.333C369.9 518.333 361.667 510.1 361.667 499.333L361.667 464.5 754.333 429.667Z" fill="#000000" fill-rule="nonzero" fill-opacity="1"/><path d="M437.667 594.333C437.667 615.32 420.654 632.333 399.667 632.333 378.68 632.333 361.667 615.32 361.667 594.333 361.667 573.347 378.68 556.333 399.667 556.333 420.654 556.333 437.667 573.347 437.667 594.333Z" fill="#000000" fill-rule="nonzero" fill-opacity="1"/><path d="M716.333 594.333C716.333 615.32 699.32 632.333 678.333 632.333 657.347 632.333 640.333 615.32 640.333 594.333 640.333 573.347 657.347 556.333 678.333 556.333 699.32 556.333 716.333 573.347 716.333 594.333Z" fill="#000000" fill-rule="nonzero" fill-opacity="1"/></g></g></g></g></g></svg>