<svg width="610" height="608" xmlns="http://www.w3.org/2000/svg" xmlns:xlink="http://www.w3.org/1999/xlink" xml:space="preserve" overflow="hidden"><g transform="translate(-170 -56)"><g><g><g><g><path d="M367.333 252.333 297.667 252.333 297.667 208 367.333 208 367.333 252.333ZM462.333 208 462.333 252.333 392.667 252.333 392.667 208 462.333 208ZM557.333 208 557.333 252.333 487.667 252.333 487.667 208 557.333 208ZM652.333 208 652.333 252.333 582.667 252.333 582.667 208 652.333 208ZM652.333 322 582.667 322 582.667 277.667 652.333 277.667 652.333 322ZM652.333 375.833 582.667 382.167 582.667 347.333 652.333 347.333 652.333 375.833ZM367.333 347.333 367.333 401.167 297.667 407.5 297.667 347.333 367.333 347.333ZM367.333 322 297.667 322 297.667 277.667 367.333 277.667 367.333 322ZM462.333 322 392.667 322 392.667 277.667 462.333 277.667 462.333 322ZM487.667 322 487.667 277.667 557.333 277.667 557.333 322 487.667 322ZM462.333 392.933 392.667 399.267 392.667 347.333 462.333 347.333 462.333 392.933ZM487.667 347.333 557.333 347.333 557.333 384.067 487.667 390.4 487.667 347.333ZM690.333 410.667 690.333 170 297.667 170 297.667 163.667C297.667 132 272.333 106.667 240.667 106.667 229.9 106.667 221.667 114.9 221.667 125.667 221.667 136.433 229.9 144.667 240.667 144.667 251.433 144.667 259.667 152.9 259.667 163.667L259.667 480.333C259.667 512 285 537.333 316.667 537.333L335.667 537.333 614.333 537.333 671.333 537.333C682.1 537.333 690.333 529.1 690.333 518.333 690.333 507.567 682.1 499.333 671.333 499.333L316.667 499.333C305.9 499.333 297.667 491.1 297.667 480.333L297.667 445.5 690.333 410.667Z" fill="#FFFFFF" fill-rule="nonzero" fill-opacity="1"/><path d="M373.667 575.333C373.667 596.32 356.654 613.333 335.667 613.333 314.68 613.333 297.667 596.32 297.667 575.333 297.667 554.347 314.68 537.333 335.667 537.333 356.654 537.333 373.667 554.347 373.667 575.333Z" fill="#FFFFFF" fill-rule="nonzero" fill-opacity="1"/><path d="M652.333 575.333C652.333 596.32 635.32 613.333 614.333 613.333 593.347 613.333 576.333 596.32 576.333 575.333 576.333 554.347 593.347 537.333 614.333 537.333 635.32 537.333 652.333 554.347 652.333 575.333Z" fill="#FFFFFF" fill-rule="nonzero" fill-opacity="1"/></g></g></g></g></g></svg>