<svg xmlns="http://www.w3.org/2000/svg" viewBox="0 0 2048 2048">
  <path d="M2048 1600q0 93-35 174t-96 142-142 96-175 36q-93 0-174-35t-142-96-96-142-36-175q0-93 35-174t96-142 142-96 175-36q93 0 174 35t142 96 96 142 36 175zm-272 267l-443-443q-26 39-39 84t-14 92q0 67 25 125t68 101 102 69 125 25q47 0 92-13t84-40zm144-267q0-66-25-124t-69-101-102-69-124-26q-47 0-92 13t-84 40l443 443q26-39 39-84t14-92zM384 637v963q0 20 13 35t27 28q44 38 112 63t143 39 150 21 131 6q17 0 32-1t33-2q11 32 25 64t32 61q-31 2-61 4t-61 2q-61 0-121-4t-121-15q-38-6-87-17t-100-29-101-40-88-54-62-72-24-89V448q0-68 38-118t101-85 139-59 156-35 150-18 120-5q49 0 120 5t149 17 156 36 140 58 100 86 39 118v551q-16-2-31-4t-33-3q-17 0-32 2t-32 5V637q-58 37-130 62t-148 40-154 22-144 7q-68 0-144-6t-153-22-149-41-130-62zm0-189q0 20 13 35t27 28q30 25 70 44t88 34 97 24 101 16 96 8 84 3q60 0 133-6t146-20 141-40 115-63q14-11 27-27t14-36q0-20-13-36t-28-27q-47-38-114-63t-141-39-147-21-133-6q-38 0-84 2t-96 9-100 15-98 24-87 34-71 45q-14 12-27 27t-13 36z" />
</svg>