<svg width="226" height="82" viewBox="0 0 226 82" fill="none" xmlns="http://www.w3.org/2000/svg">
<g clip-path="url(#clip0_6106_5202)">
<path d="M98.0999 29.6V52.4H94.1415V34.5084H94.0888L87.0165 52.4H84.3776L77.1471 34.5084H77.0943V52.4H73.4526V29.6H79.1526L85.6971 46.4889H85.8026L92.7165 29.6H98.0999ZM101.372 31.3417C101.372 30.7084 101.583 30.1806 102.058 29.7584C102.533 29.3361 103.061 29.125 103.694 29.125C104.38 29.125 104.961 29.3361 105.383 29.7584C105.805 30.1806 106.069 30.7084 106.069 31.3417C106.069 31.975 105.858 32.5028 105.383 32.925C104.908 33.3472 104.38 33.5584 103.694 33.5584C103.008 33.5584 102.48 33.3472 102.058 32.925C101.636 32.45 101.372 31.9222 101.372 31.3417ZM105.647 36.0389V52.4H101.794V36.0389H105.647ZM117.311 49.6028C117.892 49.6028 118.525 49.4972 119.211 49.1806C119.897 48.9167 120.53 48.5472 121.111 48.125V51.7139C120.478 52.0834 119.792 52.3472 119 52.5056C118.208 52.6639 117.364 52.7695 116.414 52.7695C113.986 52.7695 112.033 52.0306 110.555 50.5C109.025 48.9695 108.286 47.0167 108.286 44.6945C108.286 42.0556 109.078 39.8917 110.608 38.2028C112.139 36.5139 114.303 35.6695 117.153 35.6695C117.892 35.6695 118.63 35.775 119.317 35.9334C120.055 36.0917 120.636 36.3556 121.058 36.5667V40.2611C120.478 39.8389 119.844 39.4695 119.264 39.2584C118.63 39.0472 117.997 38.8889 117.364 38.8889C115.833 38.8889 114.619 39.3639 113.669 40.3667C112.719 41.3695 112.297 42.6889 112.297 44.3778C112.297 46.0139 112.772 47.3334 113.669 48.2306C114.567 49.1278 115.78 49.6028 117.311 49.6028ZM132.036 35.775C132.353 35.775 132.617 35.775 132.88 35.8278C133.144 35.8806 133.355 35.9334 133.514 35.9861V39.8917C133.303 39.7334 133.039 39.575 132.617 39.4695C132.194 39.3639 131.772 39.2584 131.192 39.2584C130.242 39.2584 129.45 39.6806 128.817 40.4722C128.183 41.2639 127.814 42.4778 127.814 44.1667V52.4H123.961V36.0389H127.814V38.625H127.867C128.236 37.7278 128.764 37.0417 129.45 36.5139C130.189 36.0389 131.033 35.775 132.036 35.775ZM133.725 44.4834C133.725 41.7917 134.517 39.6278 135.994 38.0445C137.525 36.4611 139.636 35.6695 142.328 35.6695C144.861 35.6695 146.867 36.4084 148.292 37.9389C149.717 39.4695 150.455 41.5278 150.455 44.1139C150.455 46.7528 149.664 48.8639 148.186 50.4472C146.655 52.0306 144.597 52.8222 141.958 52.8222C139.425 52.8222 137.419 52.0834 135.942 50.6056C134.464 49.075 133.725 47.0167 133.725 44.4834ZM137.736 44.325C137.736 46.0139 138.105 47.3334 138.897 48.2306C139.689 49.1278 140.797 49.6028 142.222 49.6028C143.594 49.6028 144.703 49.1806 145.442 48.2306C146.18 47.3334 146.55 46.0139 146.55 44.2195C146.55 42.4778 146.18 41.1584 145.442 40.2084C144.703 39.3111 143.594 38.8361 142.275 38.8361C140.85 38.8361 139.794 39.3111 139.003 40.2611C138.105 41.2639 137.736 42.5834 137.736 44.325ZM156.208 40.3667C156.208 40.8945 156.367 41.3695 156.736 41.6861C157.105 42.0028 157.844 42.3722 159.058 42.8472C160.589 43.4806 161.697 44.1667 162.278 44.9056C162.911 45.6972 163.228 46.5945 163.228 47.7028C163.228 49.2334 162.647 50.4472 161.433 51.3972C160.272 52.3472 158.636 52.7695 156.63 52.7695C155.944 52.7695 155.205 52.6639 154.361 52.5056C153.517 52.3472 152.83 52.1361 152.25 51.8722V48.0722C152.936 48.5472 153.728 48.9695 154.519 49.2334C155.311 49.4972 156.05 49.6556 156.736 49.6556C157.58 49.6556 158.267 49.55 158.636 49.2861C159.058 49.0222 159.269 48.6528 159.269 48.0722C159.269 47.5445 159.058 47.1222 158.636 46.7C158.214 46.3306 157.369 45.9084 156.208 45.4334C154.783 44.8528 153.78 44.1667 153.2 43.4278C152.619 42.6889 152.303 41.7389 152.303 40.5778C152.303 39.1 152.883 37.8861 154.044 36.9361C155.205 35.9861 156.736 35.5111 158.583 35.5111C159.164 35.5111 159.797 35.5639 160.483 35.7222C161.169 35.8806 161.803 36.0389 162.278 36.1972V39.9445C161.75 39.6278 161.169 39.3111 160.483 39.0472C159.797 38.7834 159.111 38.6778 158.478 38.6778C157.739 38.6778 157.158 38.8361 156.789 39.1C156.419 39.4695 156.208 39.8389 156.208 40.3667ZM164.864 44.4834C164.864 41.7917 165.655 39.6278 167.133 38.0445C168.664 36.4611 170.775 35.6695 173.467 35.6695C176 35.6695 178.005 36.4084 179.43 37.9389C180.855 39.4695 181.594 41.5278 181.594 44.1139C181.594 46.7528 180.803 48.8639 179.325 50.4472C177.794 52.0306 175.736 52.8222 173.097 52.8222C170.564 52.8222 168.558 52.0834 167.08 50.6056C165.655 49.075 164.864 47.0167 164.864 44.4834ZM168.875 44.325C168.875 46.0139 169.244 47.3334 170.036 48.2306C170.828 49.1278 171.936 49.6028 173.361 49.6028C174.733 49.6028 175.842 49.1806 176.58 48.2306C177.319 47.3334 177.689 46.0139 177.689 44.2195C177.689 42.4778 177.319 41.1584 176.58 40.2084C175.842 39.3111 174.733 38.8361 173.414 38.8361C171.989 38.8361 170.933 39.3111 170.142 40.2611C169.297 41.2639 168.875 42.5834 168.875 44.325ZM194.419 39.2056H188.667V52.4H184.761V39.2056H182.017V36.0389H184.761V33.7695C184.761 32.0806 185.342 30.6556 186.45 29.5472C187.558 28.4389 188.983 27.9111 190.725 27.9111C191.2 27.9111 191.622 27.9639 191.992 27.9639C192.361 27.9639 192.678 28.0695 192.942 28.175V31.5C192.836 31.4472 192.572 31.3417 192.255 31.2361C191.939 31.1306 191.569 31.0778 191.147 31.0778C190.355 31.0778 189.722 31.3417 189.3 31.8167C188.878 32.2917 188.667 33.0834 188.667 34.0334V35.9861H194.419V32.2917L198.272 31.1306V35.9861H202.178V39.1528H198.272V46.8056C198.272 47.8084 198.483 48.4945 198.8 48.9167C199.169 49.3389 199.75 49.55 200.542 49.55C200.753 49.55 201.017 49.4972 201.333 49.3917C201.65 49.2861 201.914 49.1806 202.125 49.0222V52.1889C201.861 52.3472 201.492 52.4528 200.911 52.5584C200.33 52.6639 199.803 52.7167 199.222 52.7167C197.586 52.7167 196.372 52.2945 195.58 51.45C194.789 50.6056 194.367 49.2861 194.367 47.5445L194.419 39.2056Z" fill="white"/>
<path d="M42.05 22H24V40.05H42.05V22Z" fill="#F25022"/>
<path d="M62.0002 22H43.9502V40.05H62.0002V22Z" fill="#7FBA00"/>
<path d="M42.05 41.9502H24V60.0002H42.05V41.9502Z" fill="#00A4EF"/>
<path d="M62.0002 41.9502H43.9502V60.0002H62.0002V41.9502Z" fill="#FFB900"/>
</g>
<defs>
<clipPath id="clip0_6106_5202">
<rect width="178.178" height="38" fill="white" transform="translate(24 22)"/>
</clipPath>
</defs>
</svg>
